<svg xmlns="http://www.w3.org/2000/svg" xmlns:xlink="http://www.w3.org/1999/xlink" width="500" zoomAndPan="magnify" viewBox="0 0 375 374.999991" height="500" preserveAspectRatio="xMidYMid meet" version="1.0"><defs><g/><clipPath id="36f54a249d"><path d="M 111.203125 95 L 263.453125 95 L 263.453125 224 L 111.203125 224 Z M 111.203125 95 " clip-rule="nonzero"/></clipPath></defs><rect x="-37.5" width="450" fill="#ffffff" y="-37.499999" height="449.999989" fill-opacity="1"/><rect x="-37.5" width="450" fill="#ffffff" y="-37.499999" height="449.999989" fill-opacity="1"/><g clip-path="url(#36f54a249d)"><path fill="#ff914d" d="M 262.203125 166.308594 L 192.257812 97.101562 C 191.941406 96.792969 191.601562 96.515625 191.234375 96.273438 C 190.867188 96.027344 190.480469 95.824219 190.074219 95.65625 C 189.667969 95.488281 189.246094 95.359375 188.8125 95.277344 C 188.382812 95.191406 187.945312 95.148438 187.503906 95.148438 C 187.0625 95.148438 186.628906 95.191406 186.195312 95.277344 C 185.761719 95.359375 185.34375 95.488281 184.9375 95.65625 C 184.527344 95.824219 184.140625 96.027344 183.773438 96.273438 C 183.40625 96.515625 183.066406 96.792969 182.753906 97.101562 L 156 123.519531 L 156 118.285156 C 156 117.839844 155.914062 117.40625 155.742188 116.996094 C 155.570312 116.582031 155.328125 116.214844 155.011719 115.898438 C 154.695312 115.582031 154.328125 115.339844 153.914062 115.167969 C 153.5 114.996094 153.070312 114.910156 152.625 114.910156 L 139.390625 114.910156 C 138.941406 114.910156 138.511719 114.996094 138.097656 115.167969 C 137.683594 115.339844 137.320312 115.582031 137.003906 115.898438 C 136.6875 116.214844 136.441406 116.582031 136.269531 116.996094 C 136.101562 117.40625 136.015625 117.839844 136.015625 118.285156 L 136.015625 143.351562 L 112.789062 166.308594 C 112.496094 166.601562 112.25 166.929688 112.050781 167.292969 C 111.855469 167.65625 111.714844 168.042969 111.632812 168.449219 C 111.550781 168.855469 111.53125 169.261719 111.570312 169.675781 C 111.609375 170.085938 111.707031 170.484375 111.863281 170.867188 C 112.023438 171.25 112.230469 171.601562 112.492188 171.925781 C 112.753906 172.246094 113.058594 172.519531 113.402344 172.753906 C 113.746094 172.984375 114.113281 173.160156 114.511719 173.28125 C 114.90625 173.402344 115.3125 173.464844 115.726562 173.464844 L 135.84375 173.464844 L 135.84375 214.378906 C 135.84375 214.992188 135.90625 215.597656 136.023438 216.195312 C 136.144531 216.792969 136.320312 217.375 136.554688 217.941406 C 136.785156 218.503906 137.074219 219.039062 137.414062 219.546875 C 137.753906 220.054688 138.136719 220.523438 138.570312 220.957031 C 139 221.390625 139.472656 221.773438 139.980469 222.113281 C 140.488281 222.453125 141.023438 222.738281 141.585938 222.972656 C 142.152344 223.207031 142.734375 223.382812 143.332031 223.503906 C 143.929688 223.621094 144.535156 223.679688 145.144531 223.679688 L 229.847656 223.679688 C 230.457031 223.679688 231.0625 223.621094 231.660156 223.503906 C 232.261719 223.382812 232.839844 223.207031 233.40625 222.972656 C 233.96875 222.738281 234.507812 222.453125 235.015625 222.113281 C 235.523438 221.773438 235.992188 221.390625 236.421875 220.957031 C 236.855469 220.523438 237.242188 220.054688 237.578125 219.546875 C 237.917969 219.039062 238.207031 218.503906 238.4375 217.941406 C 238.671875 217.375 238.847656 216.792969 238.96875 216.195312 C 239.085938 215.597656 239.148438 214.992188 239.148438 214.378906 L 239.148438 173.464844 L 259.269531 173.464844 C 259.683594 173.464844 260.085938 173.402344 260.484375 173.28125 C 260.878906 173.160156 261.25 172.984375 261.59375 172.753906 C 261.933594 172.519531 262.238281 172.246094 262.5 171.925781 C 262.761719 171.601562 262.972656 171.25 263.128906 170.867188 C 263.285156 170.484375 263.382812 170.085938 263.421875 169.675781 C 263.460938 169.261719 263.441406 168.855469 263.359375 168.449219 C 263.277344 168.042969 263.136719 167.65625 262.941406 167.292969 C 262.742188 166.929688 262.5 166.601562 262.203125 166.308594 Z M 191.074219 210.195312 L 191.074219 199.171875 C 192.183594 198.964844 193.265625 198.664062 194.320312 198.265625 C 195.378906 197.871094 196.394531 197.386719 197.363281 196.816406 C 198.335938 196.242188 199.253906 195.589844 200.113281 194.859375 C 200.972656 194.128906 201.761719 193.328125 202.480469 192.460938 C 203.203125 191.59375 203.84375 190.671875 204.402344 189.691406 C 204.960938 188.710938 205.433594 187.691406 205.816406 186.632812 C 206.199219 185.570312 206.488281 184.484375 206.683594 183.371094 C 206.878906 182.261719 206.976562 181.140625 206.976562 180.015625 L 206.976562 167.238281 L 199.3125 167.238281 L 199.3125 157.835938 C 199.3125 157.449219 199.238281 157.074219 199.089844 156.71875 C 198.941406 156.359375 198.730469 156.042969 198.457031 155.769531 C 198.183594 155.496094 197.867188 155.285156 197.507812 155.136719 C 197.152344 154.988281 196.777344 154.914062 196.390625 154.914062 C 196.003906 154.914062 195.632812 154.988281 195.273438 155.136719 C 194.917969 155.285156 194.601562 155.496094 194.328125 155.769531 C 194.054688 156.042969 193.84375 156.359375 193.695312 156.71875 C 193.546875 157.074219 193.472656 157.449219 193.472656 157.835938 L 193.472656 167.238281 L 181.453125 167.238281 L 181.453125 157.835938 C 181.453125 157.445312 181.378906 157.074219 181.234375 156.714844 C 181.085938 156.359375 180.875 156.042969 180.601562 155.765625 C 180.324219 155.492188 180.011719 155.28125 179.652344 155.132812 C 179.292969 154.984375 178.921875 154.910156 178.535156 154.910156 C 178.144531 154.910156 177.773438 154.984375 177.414062 155.132812 C 177.058594 155.28125 176.742188 155.492188 176.46875 155.765625 C 176.191406 156.042969 175.980469 156.359375 175.835938 156.714844 C 175.6875 157.074219 175.613281 157.445312 175.613281 157.835938 L 175.613281 167.238281 L 168.015625 167.238281 L 168.015625 180.03125 C 168.019531 181.160156 168.113281 182.277344 168.308594 183.390625 C 168.503906 184.5 168.792969 185.585938 169.175781 186.648438 C 169.558594 187.707031 170.03125 188.730469 170.589844 189.707031 C 171.152344 190.6875 171.789062 191.609375 172.511719 192.480469 C 173.230469 193.347656 174.023438 194.144531 174.878906 194.878906 C 175.738281 195.609375 176.65625 196.257812 177.628906 196.832031 C 178.601562 197.402344 179.613281 197.886719 180.671875 198.285156 C 181.726562 198.679688 182.808594 198.980469 183.917969 199.1875 L 183.917969 210.175781 C 183.171875 210.101562 182.425781 210.003906 181.683594 209.878906 C 180.945312 209.757812 180.207031 209.609375 179.476562 209.441406 C 178.742188 209.269531 178.019531 209.078125 177.296875 208.863281 C 176.578125 208.648438 175.867188 208.410156 175.164062 208.148438 C 174.457031 207.886719 173.761719 207.605469 173.074219 207.300781 C 172.390625 206.996094 171.714844 206.667969 171.046875 206.320312 C 170.382812 205.972656 169.726562 205.605469 169.085938 205.21875 C 168.441406 204.828125 167.8125 204.417969 167.195312 203.988281 C 166.578125 203.5625 165.976562 203.113281 165.386719 202.644531 C 164.800781 202.179688 164.226562 201.691406 163.667969 201.191406 C 163.113281 200.6875 162.570312 200.164062 162.046875 199.628906 C 161.523438 199.089844 161.015625 198.535156 160.523438 197.964844 C 160.035156 197.398438 159.566406 196.8125 159.113281 196.210938 C 158.660156 195.613281 158.226562 195 157.8125 194.371094 C 157.398438 193.746094 157.007812 193.105469 156.632812 192.453125 C 156.261719 191.800781 155.910156 191.136719 155.578125 190.464844 C 155.246094 189.789062 154.9375 189.105469 154.648438 188.410156 C 154.363281 187.71875 154.097656 187.015625 153.855469 186.304688 C 153.609375 185.59375 153.390625 184.875 153.191406 184.152344 C 152.996094 183.425781 152.820312 182.695312 152.667969 181.960938 C 152.519531 181.222656 152.390625 180.484375 152.285156 179.738281 C 152.179688 178.996094 152.101562 178.25 152.042969 177.5 C 151.984375 176.75 151.953125 176 151.941406 175.25 C 151.933594 174.5 151.949219 173.75 151.984375 173 C 152.023438 172.25 152.085938 171.5 152.171875 170.753906 C 152.253906 170.007812 152.363281 169.265625 152.496094 168.523438 C 152.628906 167.785156 152.785156 167.050781 152.964844 166.320312 C 153.144531 165.589844 153.34375 164.867188 153.570312 164.152344 C 153.792969 163.433594 154.042969 162.726562 154.3125 162.023438 C 154.582031 161.324219 154.871094 160.632812 155.1875 159.949219 C 155.5 159.265625 155.835938 158.59375 156.191406 157.933594 C 156.546875 157.273438 156.921875 156.621094 157.320312 155.984375 C 157.71875 155.347656 158.136719 154.722656 158.570312 154.113281 C 159.007812 153.5 159.464844 152.902344 159.9375 152.320312 C 160.414062 151.738281 160.90625 151.171875 161.417969 150.621094 C 161.929688 150.070312 162.457031 149.535156 163 149.019531 C 163.542969 148.5 164.105469 148 164.679688 147.519531 C 165.257812 147.039062 165.847656 146.574219 166.453125 146.128906 C 167.058594 145.683594 167.675781 145.257812 168.308594 144.855469 C 168.941406 144.449219 169.585938 144.0625 170.242188 143.699219 C 170.898438 143.335938 171.566406 142.992188 172.246094 142.667969 C 172.925781 142.347656 173.613281 142.046875 174.3125 141.765625 C 175.007812 141.488281 175.714844 141.230469 176.429688 141 C 177.140625 140.765625 177.863281 140.554688 178.589844 140.363281 C 179.316406 140.175781 180.050781 140.011719 180.785156 139.871094 C 181.523438 139.726562 182.265625 139.609375 183.011719 139.515625 C 183.757812 139.417969 184.503906 139.347656 185.253906 139.300781 C 186.003906 139.253906 186.753906 139.230469 187.503906 139.230469 C 188.257812 139.230469 189.007812 139.253906 189.757812 139.300781 C 190.507812 139.347656 191.253906 139.417969 192 139.515625 C 192.742188 139.609375 193.484375 139.726562 194.222656 139.871094 C 194.960938 140.011719 195.691406 140.175781 196.421875 140.363281 C 197.148438 140.554688 197.867188 140.765625 198.582031 141 C 199.296875 141.230469 200 141.488281 200.699219 141.765625 C 201.398438 142.046875 202.085938 142.347656 202.761719 142.667969 C 203.441406 142.992188 204.109375 143.335938 204.765625 143.699219 C 205.421875 144.0625 206.066406 144.449219 206.699219 144.855469 C 207.332031 145.257812 207.953125 145.683594 208.558594 146.128906 C 209.164062 146.574219 209.753906 147.039062 210.328125 147.519531 C 210.90625 148 211.464844 148.5 212.011719 149.019531 C 212.554688 149.535156 213.082031 150.070312 213.59375 150.621094 C 214.101562 151.171875 214.59375 151.738281 215.070312 152.320312 C 215.546875 152.902344 216 153.5 216.4375 154.113281 C 216.875 154.722656 217.292969 155.347656 217.6875 155.984375 C 218.085938 156.621094 218.460938 157.273438 218.820312 157.933594 C 219.175781 158.59375 219.511719 159.265625 219.824219 159.949219 C 220.136719 160.632812 220.429688 161.324219 220.699219 162.023438 C 220.96875 162.726562 221.214844 163.433594 221.441406 164.152344 C 221.664062 164.867188 221.867188 165.589844 222.046875 166.320312 C 222.226562 167.050781 222.378906 167.785156 222.511719 168.523438 C 222.644531 169.265625 222.753906 170.007812 222.839844 170.753906 C 222.925781 171.5 222.988281 172.25 223.023438 173 C 223.0625 173.75 223.078125 174.5 223.066406 175.25 C 223.058594 176 223.023438 176.75 222.964844 177.5 C 222.910156 178.25 222.828125 178.996094 222.722656 179.738281 C 222.621094 180.484375 222.492188 181.222656 222.339844 181.960938 C 222.1875 182.695312 222.015625 183.425781 221.816406 184.152344 C 221.621094 184.875 221.398438 185.59375 221.15625 186.304688 C 220.914062 187.015625 220.648438 187.71875 220.359375 188.410156 C 220.070312 189.105469 219.761719 189.789062 219.433594 190.464844 C 219.101562 191.136719 218.75 191.800781 218.375 192.453125 C 218.003906 193.105469 217.609375 193.746094 217.195312 194.371094 C 216.78125 195 216.351562 195.613281 215.898438 196.210938 C 215.445312 196.8125 214.972656 197.398438 214.484375 197.964844 C 213.996094 198.535156 213.488281 199.089844 212.964844 199.628906 C 212.4375 200.164062 211.898438 200.6875 211.339844 201.191406 C 210.78125 201.691406 210.210938 202.179688 209.621094 202.644531 C 209.035156 203.113281 208.429688 203.5625 207.8125 203.988281 C 207.199219 204.417969 206.566406 204.828125 205.925781 205.21875 C 205.28125 205.605469 204.628906 205.972656 203.960938 206.320312 C 203.296875 206.667969 202.621094 206.996094 201.933594 207.300781 C 201.246094 207.605469 200.550781 207.886719 199.847656 208.148438 C 199.140625 208.410156 198.429688 208.648438 197.710938 208.863281 C 196.992188 209.078125 196.265625 209.269531 195.535156 209.441406 C 194.800781 209.609375 194.066406 209.757812 193.324219 209.878906 C 192.582031 210.003906 191.839844 210.101562 191.089844 210.175781 Z M 191.074219 210.195312 " fill-opacity="1" fill-rule="nonzero"/></g><g fill="#ff914d" fill-opacity="1"><g transform="translate(123.870863, 254.953743)"><g><path d="M 15.15625 0 L 0.765625 0 L 0.765625 -3.078125 L 8.765625 -14.4375 L 0.953125 -14.4375 L 0.953125 -18.453125 L 14.953125 -18.453125 L 14.953125 -15.390625 L 6.953125 -4.03125 L 15.15625 -4.03125 Z M 15.15625 0 "/></g></g></g><g fill="#ff914d" fill-opacity="1"><g transform="translate(139.667309, 254.953743)"><g><path d="M 8.609375 0.25 C 6.222656 0.25 4.367188 -0.378906 3.046875 -1.640625 C 1.734375 -2.910156 1.078125 -4.71875 1.078125 -7.0625 C 1.078125 -9.476562 1.6875 -11.332031 2.90625 -12.625 C 4.132812 -13.914062 5.878906 -14.5625 8.140625 -14.5625 C 10.296875 -14.5625 11.960938 -14 13.140625 -12.875 C 14.316406 -11.75 14.90625 -10.128906 14.90625 -8.015625 L 14.90625 -5.828125 L 6.078125 -5.828125 C 6.109375 -5.023438 6.398438 -4.394531 6.953125 -3.9375 C 7.503906 -3.476562 8.253906 -3.25 9.203125 -3.25 C 10.066406 -3.25 10.863281 -3.332031 11.59375 -3.5 C 12.320312 -3.664062 13.113281 -3.945312 13.96875 -4.34375 L 13.96875 -0.796875 C 13.1875 -0.398438 12.382812 -0.128906 11.5625 0.015625 C 10.738281 0.171875 9.753906 0.25 8.609375 0.25 Z M 8.328125 -11.203125 C 7.742188 -11.203125 7.253906 -11.015625 6.859375 -10.640625 C 6.472656 -10.273438 6.242188 -9.703125 6.171875 -8.921875 L 10.421875 -8.921875 C 10.398438 -9.617188 10.203125 -10.171875 9.828125 -10.578125 C 9.453125 -10.992188 8.953125 -11.203125 8.328125 -11.203125 Z M 8.328125 -11.203125 "/></g></g></g><g fill="#ff914d" fill-opacity="1"><g transform="translate(155.65316, 254.953743)"><g><path d="M 10.734375 0 L 10.734375 -7.796875 C 10.734375 -8.753906 10.59375 -9.472656 10.3125 -9.953125 C 10.039062 -10.441406 9.601562 -10.6875 9 -10.6875 C 8.164062 -10.6875 7.5625 -10.351562 7.1875 -9.6875 C 6.820312 -9.019531 6.640625 -7.878906 6.640625 -6.265625 L 6.640625 0 L 1.703125 0 L 1.703125 -14.3125 L 5.421875 -14.3125 L 6.046875 -12.53125 L 6.34375 -12.53125 C 6.757812 -13.207031 7.335938 -13.710938 8.078125 -14.046875 C 8.828125 -14.390625 9.6875 -14.5625 10.65625 -14.5625 C 12.238281 -14.5625 13.46875 -14.101562 14.34375 -13.1875 C 15.226562 -12.269531 15.671875 -10.976562 15.671875 -9.3125 L 15.671875 0 Z M 10.734375 0 "/></g></g></g><g fill="#ff914d" fill-opacity="1"><g transform="translate(172.977479, 254.953743)"><g><path d="M 17.8125 0 L 12.796875 0 L 12.796875 -7.53125 L 7 -7.53125 L 7 0 L 2 0 L 2 -18.453125 L 7 -18.453125 L 7 -11.609375 L 12.796875 -11.609375 L 12.796875 -18.453125 L 17.8125 -18.453125 Z M 17.8125 0 "/></g></g></g><g fill="#ff914d" fill-opacity="1"><g transform="translate(192.789328, 254.953743)"><g><path d="M 15.359375 -7.1875 C 15.359375 -4.84375 14.726562 -3.015625 13.46875 -1.703125 C 12.21875 -0.398438 10.457031 0.25 8.1875 0.25 C 6.019531 0.25 4.289062 -0.414062 3 -1.75 C 1.71875 -3.09375 1.078125 -4.90625 1.078125 -7.1875 C 1.078125 -9.519531 1.707031 -11.332031 2.96875 -12.625 C 4.226562 -13.914062 5.992188 -14.5625 8.265625 -14.5625 C 9.671875 -14.5625 10.910156 -14.257812 11.984375 -13.65625 C 13.066406 -13.0625 13.898438 -12.207031 14.484375 -11.09375 C 15.066406 -9.976562 15.359375 -8.675781 15.359375 -7.1875 Z M 6.09375 -7.1875 C 6.09375 -5.957031 6.253906 -5.019531 6.578125 -4.375 C 6.910156 -3.726562 7.46875 -3.40625 8.25 -3.40625 C 9.007812 -3.40625 9.546875 -3.726562 9.859375 -4.375 C 10.179688 -5.019531 10.34375 -5.957031 10.34375 -7.1875 C 10.34375 -8.40625 10.179688 -9.328125 9.859375 -9.953125 C 9.535156 -10.578125 8.988281 -10.890625 8.21875 -10.890625 C 7.457031 -10.890625 6.910156 -10.578125 6.578125 -9.953125 C 6.253906 -9.335938 6.09375 -8.414062 6.09375 -7.1875 Z M 6.09375 -7.1875 "/></g></g></g><g fill="#ff914d" fill-opacity="1"><g transform="translate(209.267635, 254.953743)"><g><path d="M 19.265625 0 L 19.265625 -7.78125 C 19.265625 -8.75 19.128906 -9.472656 18.859375 -9.953125 C 18.597656 -10.441406 18.179688 -10.6875 17.609375 -10.6875 C 16.859375 -10.6875 16.304688 -10.359375 15.953125 -9.703125 C 15.597656 -9.054688 15.421875 -8.046875 15.421875 -6.671875 L 15.421875 0 L 10.46875 0 L 10.46875 -7.78125 C 10.46875 -8.75 10.335938 -9.472656 10.078125 -9.953125 C 9.828125 -10.441406 9.421875 -10.6875 8.859375 -10.6875 C 8.085938 -10.6875 7.523438 -10.335938 7.171875 -9.640625 C 6.816406 -8.953125 6.640625 -7.828125 6.640625 -6.265625 L 6.640625 0 L 1.703125 0 L 1.703125 -14.3125 L 5.421875 -14.3125 L 6.046875 -12.53125 L 6.34375 -12.53125 C 6.71875 -13.1875 7.265625 -13.6875 7.984375 -14.03125 C 8.703125 -14.382812 9.519531 -14.5625 10.4375 -14.5625 C 12.5 -14.5625 13.945312 -13.929688 14.78125 -12.671875 L 15.171875 -12.671875 C 15.578125 -13.265625 16.140625 -13.726562 16.859375 -14.0625 C 17.578125 -14.394531 18.375 -14.5625 19.25 -14.5625 C 20.9375 -14.5625 22.179688 -14.125 22.984375 -13.25 C 23.796875 -12.382812 24.203125 -11.070312 24.203125 -9.3125 L 24.203125 0 Z M 19.265625 0 "/></g></g></g><g fill="#ff914d" fill-opacity="1"><g transform="translate(235.127843, 254.953743)"><g><path d="M 8.609375 0.25 C 6.222656 0.25 4.367188 -0.378906 3.046875 -1.640625 C 1.734375 -2.910156 1.078125 -4.71875 1.078125 -7.0625 C 1.078125 -9.476562 1.6875 -11.332031 2.90625 -12.625 C 4.132812 -13.914062 5.878906 -14.5625 8.140625 -14.5625 C 10.296875 -14.5625 11.960938 -14 13.140625 -12.875 C 14.316406 -11.75 14.90625 -10.128906 14.90625 -8.015625 L 14.90625 -5.828125 L 6.078125 -5.828125 C 6.109375 -5.023438 6.398438 -4.394531 6.953125 -3.9375 C 7.503906 -3.476562 8.253906 -3.25 9.203125 -3.25 C 10.066406 -3.25 10.863281 -3.332031 11.59375 -3.5 C 12.320312 -3.664062 13.113281 -3.945312 13.96875 -4.34375 L 13.96875 -0.796875 C 13.1875 -0.398438 12.382812 -0.128906 11.5625 0.015625 C 10.738281 0.171875 9.753906 0.25 8.609375 0.25 Z M 8.328125 -11.203125 C 7.742188 -11.203125 7.253906 -11.015625 6.859375 -10.640625 C 6.472656 -10.273438 6.242188 -9.703125 6.171875 -8.921875 L 10.421875 -8.921875 C 10.398438 -9.617188 10.203125 -10.171875 9.828125 -10.578125 C 9.453125 -10.992188 8.953125 -11.203125 8.328125 -11.203125 Z M 8.328125 -11.203125 "/></g></g></g><g fill="#ff914d" fill-opacity="1"><g transform="translate(160.839838, 277.999434)"><g><path d="M 2.875 -9.0625 C 2.734375 -9.046875 2.625 -9.015625 2.5 -8.984375 C 2.1875 -8.9375 1.375 -8.59375 1.109375 -8.390625 C 1.015625 -8.296875 0.90625 -8.234375 0.796875 -8.15625 C 0.75 -8.09375 0.6875 -8.0625 0.640625 -8.03125 C 0.546875 -7.9375 0.46875 -7.859375 0.375 -7.765625 C 0.3125 -7.703125 0.265625 -7.625 0.203125 -7.5625 C 0.125 -7.484375 0.0625 -7.390625 0.03125 -7.296875 C -0.015625 -7.21875 -0.03125 -7.125 0 -7.046875 C 0.03125 -7.03125 0.0625 -7.015625 0.109375 -7.015625 C 0.15625 -7.015625 0.1875 -7.0625 0.21875 -7.078125 C 0.265625 -7.140625 0.265625 -7.21875 0.328125 -7.25 C 0.375 -7.3125 0.421875 -7.390625 0.46875 -7.453125 C 0.546875 -7.515625 0.59375 -7.59375 0.65625 -7.671875 C 0.703125 -7.703125 0.75 -7.765625 0.8125 -7.8125 C 0.828125 -7.84375 0.875 -7.875 0.90625 -7.90625 C 1.015625 -8.03125 1.15625 -8.140625 1.296875 -8.25 C 1.5 -8.390625 2.171875 -8.625 2.4375 -8.71875 C 2.546875 -8.71875 2.65625 -8.75 2.75 -8.75 C 2.859375 -8.765625 2.9375 -8.8125 3.046875 -8.8125 C 3.1875 -8.828125 3.3125 -8.84375 3.453125 -8.8125 C 3.609375 -8.765625 3.78125 -8.796875 3.953125 -8.765625 C 4.15625 -8.71875 4.375 -8.71875 4.546875 -8.59375 C 4.640625 -8.53125 4.734375 -8.46875 4.828125 -8.421875 C 4.875 -8.390625 4.90625 -8.375 4.9375 -8.3125 C 5 -8.21875 5.09375 -8.125 5.171875 -8.03125 C 5.1875 -8 5.1875 -7.953125 5.203125 -7.90625 C 5.515625 -7.625 5.40625 -6.203125 5.296875 -5.796875 C 5.265625 -5.671875 5.234375 -5.5625 5.1875 -5.4375 C 5.1875 -5.4375 4.75 -5.484375 4.703125 -5.484375 C 4.625 -5.484375 4.546875 -5.484375 4.46875 -5.484375 C 4.03125 -5.546875 3.734375 -5.46875 3.390625 -5.140625 C 3.3125 -5.046875 3.34375 -5.1875 3.15625 -4.859375 C 3.03125 -4.6875 3.09375 -4.46875 3.125 -4.328125 C 3.15625 -4.25 3.15625 -4.140625 3.171875 -4.0625 C 3.21875 -3.984375 3.25 -3.9375 3.3125 -3.890625 C 3.359375 -3.859375 3.390625 -3.84375 3.4375 -3.8125 C 3.484375 -3.78125 3.546875 -3.78125 3.59375 -3.734375 C 3.65625 -3.71875 3.71875 -3.671875 3.765625 -3.65625 C 3.84375 -3.625 3.921875 -3.625 4 -3.625 C 4.046875 -3.640625 4.109375 -3.625 4.171875 -3.625 C 4.25 -3.625 4.328125 -3.671875 4.390625 -3.671875 C 4.453125 -3.65625 4.484375 -3.671875 4.53125 -3.6875 C 4.578125 -3.71875 4.640625 -3.71875 4.6875 -3.734375 C 4.765625 -3.75 4.796875 -3.8125 4.84375 -3.8125 C 5.046875 -3.84375 5.25 -4.078125 5.3125 -4.109375 C 5.359375 -4.15625 5.40625 -4.21875 5.46875 -4.28125 C 5.53125 -4.328125 5.5625 -4.40625 5.609375 -4.46875 C 5.65625 -4.515625 5.671875 -4.59375 5.703125 -4.65625 C 5.765625 -4.703125 5.78125 -4.765625 5.8125 -4.828125 C 6.28125 -4.65625 6.359375 -4.203125 6.46875 -3.796875 C 6.5 -3.53125 6.5 -3.28125 6.515625 -3.03125 C 6.53125 -2.65625 6.484375 -2.296875 6.421875 -1.9375 C 6.25 -1.921875 6.0625 -1.953125 5.875 -1.921875 C 5.765625 -1.9375 5.65625 -1.921875 5.546875 -1.90625 C 5.40625 -1.890625 5.265625 -1.875 5.125 -1.859375 C 4.984375 -1.8125 4.828125 -1.796875 4.703125 -1.734375 C 4.578125 -1.703125 4.453125 -1.65625 4.328125 -1.59375 C 4.25 -1.53125 4.125 -1.484375 4.03125 -1.421875 C 3.921875 -1.34375 3.8125 -1.296875 3.703125 -1.234375 C 3.625 -1.203125 3.578125 -1.125 3.5 -1.109375 C 3.40625 -1.0625 3.328125 -0.984375 3.25 -0.9375 C 3.15625 -0.859375 3.09375 -0.71875 3.03125 -0.625 C 2.984375 -0.546875 2.953125 -0.453125 2.921875 -0.359375 C 2.875 -0.265625 2.875 -0.1875 2.875 -0.078125 C 2.875 0.015625 2.90625 0.109375 2.90625 0.1875 C 2.921875 0.265625 2.9375 0.359375 3.015625 0.40625 C 3.0625 0.5 3.109375 0.609375 3.203125 0.65625 C 3.265625 0.6875 3.328125 0.734375 3.390625 0.796875 C 3.4375 0.828125 3.59375 0.9375 3.65625 0.96875 C 3.859375 1.03125 4.03125 1.046875 4.25 1.09375 C 4.328125 1.109375 4.390625 1.109375 4.46875 1.125 C 4.828125 1.171875 5.71875 0.765625 6.046875 0.578125 C 6.109375 0.546875 6.140625 0.484375 6.21875 0.453125 C 6.3125 0.359375 6.421875 0.265625 6.5 0.15625 C 6.53125 0.109375 6.578125 0.0625 6.609375 0.03125 C 6.640625 -0.03125 6.6875 -0.09375 6.734375 -0.140625 C 6.828125 -0.234375 6.84375 -0.375 6.921875 -0.46875 C 7.015625 -0.65625 7.046875 -0.828125 7.109375 -0.984375 C 7.140625 -1.046875 7.140625 -1.109375 7.15625 -1.15625 C 7.203125 -1.265625 7.203125 -1.390625 7.25 -1.484375 C 7.28125 -1.5 7.3125 -1.5 7.34375 -1.484375 C 7.484375 -1.453125 7.859375 -1.328125 7.984375 -1.265625 C 8.125 -1.1875 8.28125 -1.125 8.40625 -1.015625 C 8.515625 -0.953125 8.609375 -0.859375 8.703125 -0.796875 C 8.9375 -0.6875 9.125 -0.734375 8.96875 -0.90625 C 8.890625 -1 8.375 -1.359375 8.234375 -1.4375 C 8.09375 -1.5 7.734375 -1.703125 7.59375 -1.75 C 7.484375 -1.78125 7.375 -1.796875 7.265625 -1.84375 C 7.34375 -2.1875 7.296875 -2.703125 7.296875 -3.0625 C 7.28125 -3.125 7.25 -3.203125 7.25 -3.28125 C 7.203125 -3.421875 7.203125 -3.5625 7.15625 -3.703125 C 7.078125 -3.890625 7.03125 -4.0625 6.921875 -4.234375 C 6.78125 -4.4375 6.65625 -4.546875 6.515625 -4.703125 C 6.4375 -4.796875 6.359375 -4.875 6.28125 -4.9375 C 6.21875 -4.96875 6.140625 -5.015625 6.078125 -5.0625 C 6.03125 -5.109375 5.984375 -5.125 5.921875 -5.15625 C 5.96875 -5.296875 6.03125 -5.4375 6.046875 -5.59375 C 6.0625 -5.6875 6.078125 -5.78125 6.109375 -5.859375 C 6.140625 -5.953125 6.125 -6.0625 6.140625 -6.15625 C 6.140625 -6.25 6.171875 -6.359375 6.15625 -6.453125 C 6.1875 -6.578125 6.140625 -6.6875 6.125 -6.8125 C 6.078125 -6.90625 6.109375 -7.015625 6.0625 -7.09375 C 6.03125 -7.21875 6.03125 -7.359375 5.96875 -7.453125 C 5.953125 -7.5625 5.921875 -7.671875 5.875 -7.75 C 5.4375 -8.46875 4.78125 -8.859375 3.953125 -9.046875 C 3.796875 -9.0625 3.59375 -9.046875 3.421875 -9.0625 C 3.234375 -9.109375 3.046875 -9.078125 2.875 -9.0625 Z M 3.34375 -4.671875 C 3.453125 -5.03125 3.96875 -5.234375 4.265625 -5.203125 C 4.40625 -5.1875 4.5625 -5.203125 4.703125 -5.203125 C 4.828125 -5.1875 4.9375 -5.125 5.046875 -5.125 C 5.03125 -5.046875 4.984375 -4.984375 4.921875 -4.90625 C 4.828125 -4.75 4.703125 -4.609375 4.578125 -4.453125 C 4.53125 -4.375 4.4375 -4.328125 4.359375 -4.28125 C 4.296875 -4.234375 4.203125 -4.21875 4.125 -4.171875 C 4.03125 -4.109375 3.890625 -4.0625 3.78125 -4.03125 C 3.71875 -4.03125 3.671875 -4.09375 3.59375 -4.09375 C 3.578125 -4.09375 3.546875 -4.109375 3.53125 -4.125 C 3.375 -4.25 3.296875 -4.484375 3.34375 -4.671875 Z M 5.890625 -1.640625 C 6.03125 -1.640625 6.15625 -1.65625 6.28125 -1.640625 C 6.328125 -1.640625 6.359375 -1.640625 6.375 -1.625 C 6.34375 -1.46875 6.28125 -1.34375 6.234375 -1.203125 C 6.140625 -0.96875 6.0625 -0.734375 5.921875 -0.515625 C 5.859375 -0.40625 5.78125 -0.3125 5.703125 -0.203125 C 5.609375 -0.0625 5.484375 0.0625 5.375 0.1875 C 5.296875 0.265625 5.1875 0.328125 5.109375 0.40625 C 4.984375 0.5 4.828125 0.578125 4.6875 0.625 C 4.625 0.640625 4.578125 0.6875 4.515625 0.6875 C 4.328125 0.703125 4.125 0.703125 3.9375 0.6875 C 3.828125 0.65625 3.703125 0.640625 3.609375 0.59375 C 3.53125 0.546875 3.421875 0.5 3.34375 0.40625 C 3.3125 0.359375 3.234375 0.34375 3.203125 0.296875 C 3.0625 0.140625 3.09375 -0.03125 3.0625 -0.25 C 3.09375 -0.34375 3.09375 -0.46875 3.15625 -0.546875 C 3.203125 -0.59375 3.21875 -0.65625 3.28125 -0.6875 C 3.359375 -0.75 3.421875 -0.828125 3.515625 -0.875 C 3.609375 -0.953125 3.734375 -1 3.859375 -1.0625 C 4.203125 -1.328125 4.765625 -1.484375 5.1875 -1.546875 C 5.421875 -1.59375 5.65625 -1.609375 5.890625 -1.640625 Z M 2.296875 -7.609375 C 2.21875 -7.59375 2.140625 -7.5625 2.046875 -7.515625 C 2 -7.515625 1.984375 -7.453125 1.953125 -7.421875 C 1.921875 -7.375 1.953125 -7.296875 1.921875 -7.25 C 1.921875 -7.203125 1.921875 -7.140625 1.890625 -7.078125 C 1.859375 -7.015625 1.859375 -6.9375 1.859375 -6.859375 C 1.828125 -6.796875 1.859375 -6.75 1.828125 -6.6875 C 1.796875 -6.609375 1.796875 -6.515625 1.78125 -6.421875 C 1.78125 -6.296875 1.78125 -6.171875 1.765625 -6.046875 C 1.734375 -5.75 1.703125 -5.453125 1.6875 -5.15625 C 1.6875 -5.046875 1.671875 -4.9375 1.640625 -4.828125 C 1.640625 -4.71875 1.65625 -4.59375 1.640625 -4.46875 C 1.640625 -4.390625 1.625 -4.3125 1.609375 -4.234375 C 1.609375 -4.078125 1.578125 -3.921875 1.578125 -3.765625 C 1.578125 -3.671875 1.5625 -3.578125 1.5625 -3.46875 C 1.53125 -3.359375 1.546875 -3.234375 1.546875 -3.125 C 1.515625 -2.90625 1.546875 -2.6875 1.53125 -2.46875 C 1.53125 -2.25 1.53125 -2.03125 1.53125 -1.8125 C 1.5625 -1.71875 1.546875 -1.640625 1.546875 -1.546875 C 1.5625 -1.34375 1.5625 -1.171875 1.5625 -0.984375 C 1.5625 -0.75 1.609375 -0.53125 1.609375 -0.296875 C 1.640625 -0.203125 1.640625 -0.125 1.640625 -0.03125 C 1.65625 0.046875 1.640625 0.140625 1.671875 0.234375 C 1.6875 0.296875 1.703125 0.359375 1.703125 0.421875 C 1.71875 0.546875 1.75 0.6875 1.78125 0.828125 C 1.828125 0.984375 1.859375 1.125 1.90625 1.265625 C 1.9375 1.40625 2 1.546875 2.0625 1.6875 C 2.140625 1.875 2.234375 2.078125 2.359375 2.25 C 2.4375 2.359375 2.53125 2.4375 2.625 2.546875 C 2.734375 2.65625 3.1875 2.9375 3.375 2.90625 C 3.515625 2.875 3.59375 2.921875 3.8125 2.828125 C 4.109375 2.71875 4.359375 2.5 4.515625 2.234375 C 4.53125 2.203125 4.5 2.171875 4.546875 2.140625 C 4.625 2.03125 4.609375 1.859375 4.515625 1.9375 C 4.421875 2.046875 4.3125 2.140625 4.21875 2.234375 C 4.109375 2.375 3.890625 2.4375 3.734375 2.515625 C 3.640625 2.546875 3.5625 2.546875 3.484375 2.546875 C 3.171875 2.46875 3.1875 2.5 3.03125 2.265625 C 2.984375 2.1875 2.9375 2.125 2.890625 2.03125 C 2.828125 1.921875 2.78125 1.78125 2.75 1.640625 C 2.71875 1.5625 2.703125 1.46875 2.671875 1.375 C 2.671875 1.3125 2.65625 1.234375 2.640625 1.171875 C 2.59375 1.046875 2.578125 0.90625 2.578125 0.765625 C 2.546875 0.609375 2.5 0.421875 2.5 0.25 C 2.484375 0.15625 2.484375 0.046875 2.46875 -0.03125 C 2.46875 -0.109375 2.484375 -0.203125 2.46875 -0.28125 C 2.4375 -0.515625 2.453125 -0.75 2.4375 -0.984375 C 2.46875 -1.078125 2.4375 -1.203125 2.453125 -1.296875 C 2.453125 -1.375 2.453125 -1.4375 2.46875 -1.515625 C 2.484375 -1.671875 2.484375 -1.828125 2.5 -1.984375 C 2.515625 -2.15625 2.515625 -2.359375 2.546875 -2.53125 C 2.546875 -2.625 2.53125 -2.703125 2.5625 -2.796875 C 2.578125 -2.953125 2.609375 -3.140625 2.59375 -3.3125 C 2.59375 -3.484375 2.65625 -3.65625 2.65625 -3.828125 C 2.65625 -3.9375 2.65625 -4.03125 2.671875 -4.140625 C 2.6875 -4.28125 2.71875 -4.40625 2.71875 -4.546875 C 2.71875 -4.65625 2.765625 -4.765625 2.765625 -4.875 C 2.75 -4.9375 2.78125 -4.984375 2.765625 -5.046875 C 2.765625 -5.171875 2.796875 -5.296875 2.8125 -5.40625 C 2.828125 -5.53125 2.859375 -5.65625 2.875 -5.78125 C 2.90625 -5.890625 2.921875 -6.015625 2.9375 -6.140625 C 2.953125 -6.1875 2.9375 -6.25 2.953125 -6.296875 C 2.96875 -6.359375 2.953125 -6.390625 2.953125 -6.421875 C 3 -6.546875 3.015625 -6.671875 3 -6.796875 C 2.984375 -6.875 3.03125 -6.953125 3.015625 -7.03125 C 2.984375 -7.09375 2.984375 -7.171875 2.9375 -7.234375 C 2.921875 -7.265625 2.90625 -7.3125 2.875 -7.359375 C 2.84375 -7.40625 2.796875 -7.453125 2.734375 -7.515625 C 2.703125 -7.578125 2.625 -7.578125 2.578125 -7.609375 C 2.5 -7.65625 2.390625 -7.65625 2.296875 -7.609375 Z M 2.296875 -7.609375 "/></g></g></g><g fill="#ff914d" fill-opacity="1"><g transform="translate(169.432256, 277.999434)"><g><path d="M 4.921875 -0.0625 C 5.03125 -0.171875 5.171875 -0.375 5.21875 -0.515625 C 5.265625 -0.609375 5.328125 -0.703125 5.375 -0.796875 C 5.375 -0.8125 5.375 -0.8125 5.375 -0.8125 C 5.375 -0.8125 5.375 -0.8125 5.375 -0.828125 C 5.484375 -1.015625 5.640625 -1.34375 5.6875 -1.453125 C 5.703125 -1.5 5.75 -1.640625 5.78125 -1.765625 C 5.8125 -1.796875 5.828125 -1.84375 5.84375 -1.890625 C 5.84375 -1.90625 5.859375 -1.921875 5.859375 -1.9375 C 5.875 -1.953125 5.875 -1.984375 5.890625 -2 C 5.90625 -2 5.921875 -2.015625 5.921875 -2.046875 C 5.953125 -2.09375 5.9375 -2.140625 5.953125 -2.15625 C 5.96875 -2.171875 5.984375 -2.1875 5.984375 -2.21875 C 6.0625 -2.4375 5.859375 -2.421875 5.8125 -2.3125 C 5.765625 -2.234375 5.703125 -2.09375 5.671875 -2.03125 C 5.65625 -2.015625 5.640625 -2 5.640625 -1.984375 C 5.625 -1.96875 5.625 -1.9375 5.609375 -1.921875 C 5.609375 -1.921875 5.609375 -1.890625 5.609375 -1.859375 C 5.59375 -1.859375 5.578125 -1.84375 5.578125 -1.8125 C 5.5 -1.640625 5.296875 -1.3125 5.21875 -1.15625 C 5.21875 -1.140625 5.1875 -1.125 5.1875 -1.109375 C 5.1875 -1.09375 5.15625 -1.046875 5.125 -1 C 5.109375 -0.9375 5.078125 -0.921875 5.0625 -0.90625 C 5.046875 -0.859375 5.046875 -0.828125 5.03125 -0.796875 C 5.015625 -0.78125 5.015625 -0.765625 5 -0.75 C 5 -0.71875 4.984375 -0.671875 4.984375 -0.65625 C 4.984375 -0.640625 4.984375 -0.640625 4.984375 -0.625 C 3.8125 0.828125 3.9375 -1.546875 3.578125 -2.609375 C 3.546875 -2.6875 3.5625 -2.765625 3.53125 -2.84375 C 3.515625 -2.921875 3.515625 -3 3.484375 -3.078125 C 3.390625 -3.375 3.265625 -4.546875 3.1875 -4.96875 C 3.15625 -5.1875 3.109375 -5.40625 2.953125 -5.5625 C 2.90625 -5.625 2.8125 -5.625 2.71875 -5.65625 C 2.59375 -5.703125 2.125 -5.359375 2.046875 -5.296875 C 1.96875 -5.21875 1.859375 -5.15625 1.78125 -5.078125 C 1.65625 -4.984375 1.5625 -4.90625 1.453125 -4.78125 C 1.34375 -4.65625 1.1875 -4.484375 1.09375 -4.375 C 0.953125 -4.1875 0.828125 -4 0.6875 -3.8125 C 0.34375 -3.328125 -0.03125 -1.890625 0.015625 -1.25 C 0.03125 -1.078125 0.03125 -0.90625 0.046875 -0.734375 C 0.0625 -0.625 0.109375 -0.546875 0.15625 -0.46875 C 0.1875 -0.390625 0.21875 -0.3125 0.265625 -0.25 C 0.359375 -0.109375 0.5 -0.03125 0.65625 0.015625 C 0.734375 0.03125 0.796875 -0.015625 0.875 -0.015625 C 1.046875 -0.015625 1.203125 -0.140625 1.328125 -0.25 C 1.40625 -0.3125 1.46875 -0.375 1.5625 -0.40625 C 1.65625 -0.46875 1.734375 -0.5625 1.8125 -0.65625 C 1.859375 -0.71875 1.921875 -0.78125 2 -0.84375 C 2.015625 -0.875 2.03125 -0.90625 2.0625 -0.9375 C 2.125 -1 2.171875 -1.0625 2.21875 -1.140625 C 2.296875 -1.265625 2.5 -1.6875 2.53125 -1.796875 C 2.578125 -1.921875 2.6875 -2.140625 2.6875 -2.203125 C 2.6875 -2.21875 2.71875 -2.234375 2.71875 -2.21875 C 2.96875 -1.265625 3.6875 1.125 4.921875 -0.0625 Z M 2.390625 -2.34375 C 2.328125 -2.203125 2.359375 -2.21875 2.3125 -2.078125 C 2.265625 -1.921875 1.953125 -1.421875 1.859375 -1.265625 C 1.703125 -1.0625 1.515625 -0.890625 1.34375 -0.71875 C 1.265625 -0.65625 1.1875 -0.59375 1.09375 -0.53125 C 1 -0.46875 0.90625 -0.359375 0.796875 -0.34375 C 0.75 -0.34375 0.6875 -0.359375 0.671875 -0.40625 C 0.609375 -0.46875 0.5625 -0.578125 0.53125 -0.6875 C 0.5 -0.8125 0.5 -0.9375 0.484375 -1.0625 C 0.484375 -1.171875 0.5 -1.265625 0.5 -1.375 C 0.421875 -2.5625 0.984375 -3.75 1.703125 -4.65625 C 1.96875 -4.984375 1.890625 -4.859375 2.140625 -5.046875 C 2.1875 -5.125 2.25 -5.1875 2.328125 -5.1875 C 2.375 -5.203125 2.3125 -5.125 2.296875 -5.09375 C 2.25 -4.984375 2.25 -4.984375 2.234375 -4.859375 C 2.21875 -4.765625 2.25 -4.671875 2.25 -4.578125 C 2.234375 -4.40625 2.234375 -4.234375 2.265625 -4.0625 C 2.296875 -3.875 2.328125 -3.671875 2.359375 -3.484375 C 2.390625 -3.390625 2.4375 -3.3125 2.4375 -3.203125 C 2.46875 -3.0625 2.5 -2.921875 2.546875 -2.78125 C 2.578125 -2.71875 2.53125 -2.65625 2.5 -2.59375 C 2.46875 -2.5 2.4375 -2.4375 2.390625 -2.34375 Z M 2.390625 -2.34375 "/></g></g></g><g fill="#ff914d" fill-opacity="1"><g transform="translate(175.044942, 277.999434)"><g><path d="M 2.46875 -8.796875 C 2.28125 -9.015625 1.765625 -8.96875 1.671875 -8.859375 C 1.65625 -8.828125 1.609375 -8.828125 1.59375 -8.8125 C 1.546875 -8.75 1.484375 -8.71875 1.453125 -8.6875 C 1.375 -8.609375 1.28125 -8.5625 1.234375 -8.46875 C 1.203125 -8.421875 1.15625 -8.375 1.125 -8.3125 C 1.046875 -8.234375 0.96875 -8.140625 0.90625 -8.046875 C 0.890625 -7.984375 0.84375 -7.9375 0.8125 -7.875 C 0.765625 -7.796875 0.734375 -7.71875 0.6875 -7.640625 C 0.046875 -6.375 0.140625 -5.8125 0.03125 -5.078125 C 0.03125 -5.03125 0.03125 -4.984375 0.015625 -4.921875 C 0.015625 -4.859375 -0.015625 -4.796875 0 -4.734375 C 0 -4.671875 -0.015625 -4.609375 -0.03125 -4.546875 C -0.03125 -4.46875 -0.03125 -4.390625 -0.03125 -4.328125 C 0 -3.59375 -0.078125 -3.296875 0.015625 -2.625 C 0.03125 -2.515625 0.046875 -2.4375 0.0625 -2.328125 C 0.078125 -2.21875 0.109375 -2.09375 0.125 -1.984375 C 0.171875 -1.796875 0.25 -1.640625 0.3125 -1.484375 C 0.328125 -1.390625 0.359375 -1.28125 0.40625 -1.203125 C 0.46875 -1.109375 0.5 -1.015625 0.546875 -0.90625 C 0.59375 -0.828125 0.84375 -0.421875 0.875 -0.40625 C 0.921875 -0.34375 0.984375 -0.3125 1.046875 -0.265625 C 1.328125 -0.046875 1.5 0.109375 1.90625 0.03125 C 1.953125 0.015625 2.015625 0.03125 2.078125 0.015625 C 2.125 -0.015625 2.171875 -0.03125 2.21875 -0.03125 C 2.28125 -0.03125 2.359375 -0.078125 2.40625 -0.109375 C 2.46875 -0.125 2.53125 -0.140625 2.578125 -0.1875 C 3 -0.671875 3.34375 -1.484375 3.53125 -2.109375 C 3.546875 -2.140625 3.5625 -2.1875 3.578125 -2.21875 C 3.59375 -2.25 3.59375 -2.265625 3.59375 -2.28125 C 3.609375 -2.296875 3.609375 -2.3125 3.625 -2.34375 C 3.65625 -2.40625 3.671875 -2.453125 3.6875 -2.5 C 3.703125 -2.515625 3.71875 -2.53125 3.71875 -2.546875 C 3.8125 -2.796875 3.59375 -2.75 3.546875 -2.65625 C 3.5 -2.578125 3.453125 -2.4375 3.40625 -2.375 C 3.40625 -2.359375 3.390625 -2.34375 3.375 -2.328125 C 3.359375 -2.28125 3.375 -2.234375 3.359375 -2.21875 C 3.34375 -2.203125 3.328125 -2.171875 3.328125 -2.15625 C 2.9375 -1.265625 2.90625 -1.125 2.390625 -0.46875 C 2.234375 -0.265625 2.078125 -0.3125 1.859375 -0.28125 C 1.6875 -0.25 1.546875 -0.34375 1.421875 -0.46875 C 1.390625 -0.5 1.15625 -0.921875 1.125 -1.03125 C 1.109375 -1.078125 1 -1.453125 1 -1.515625 C 0.984375 -1.578125 0.96875 -1.640625 0.953125 -1.703125 C 0.9375 -1.765625 0.9375 -1.8125 0.921875 -1.859375 C 0.90625 -1.90625 0.90625 -1.953125 0.890625 -2 C 0.84375 -2.09375 0.875 -2.21875 0.859375 -2.3125 C 0.859375 -2.390625 0.828125 -2.453125 0.828125 -2.53125 C 0.828125 -2.578125 0.828125 -2.40625 0.828125 -2.46875 C 0.828125 -2.546875 0.828125 -2.625 0.828125 -2.703125 C 0.828125 -2.890625 0.84375 -2.875 0.8125 -3.078125 C 0.796875 -3.15625 0.828125 -3.25 0.84375 -3.3125 C 0.859375 -3.359375 0.984375 -3.4375 1.015625 -3.46875 C 1.046875 -3.53125 1.109375 -3.5625 1.140625 -3.609375 C 1.171875 -3.65625 1.203125 -3.6875 1.234375 -3.734375 C 1.296875 -3.8125 1.390625 -3.890625 1.4375 -3.984375 C 1.515625 -4.109375 1.609375 -4.21875 1.6875 -4.328125 C 1.734375 -4.421875 1.859375 -4.625 1.921875 -4.734375 C 2.359375 -5.40625 2.8125 -7.015625 2.734375 -7.78125 C 2.71875 -7.84375 2.6875 -8.390625 2.671875 -8.390625 C 2.640625 -8.46875 2.640625 -8.53125 2.609375 -8.59375 C 2.578125 -8.671875 2.515625 -8.734375 2.46875 -8.796875 Z M 1.328125 -4.3125 C 0.84375 -3.734375 0.734375 -3.5 0.859375 -4.421875 C 0.875 -4.546875 0.890625 -4.640625 0.90625 -4.765625 C 0.921875 -4.828125 1 -5.84375 1.03125 -5.90625 C 1.0625 -6 1.0625 -6.109375 1.078125 -6.21875 C 1.078125 -6.265625 1.109375 -6.3125 1.125 -6.359375 C 1.125 -6.453125 1.125 -6.5625 1.140625 -6.640625 C 1.15625 -6.6875 1.171875 -6.71875 1.171875 -6.765625 C 1.171875 -6.8125 1.234375 -6.859375 1.234375 -6.921875 C 1.234375 -7.015625 1.25 -7.125 1.28125 -7.21875 C 1.328125 -7.328125 1.34375 -7.453125 1.390625 -7.5625 C 1.421875 -7.671875 1.453125 -7.765625 1.515625 -7.875 C 1.5625 -7.953125 1.5625 -8 1.625 -8.078125 C 1.78125 -8.3125 1.78125 -8.234375 1.890625 -8.359375 C 1.953125 -8.421875 2 -8.515625 2.09375 -8.546875 C 2.140625 -8.5625 2.171875 -8.609375 2.21875 -8.609375 C 2.25 -8.609375 2.296875 -8.609375 2.34375 -8.578125 C 2.421875 -8.53125 2.4375 -8.453125 2.4375 -8.375 C 2.453125 -8.3125 2.484375 -8.265625 2.5 -8.21875 C 2.5 -8.1875 2.515625 -7.796875 2.515625 -7.765625 C 2.5 -7.515625 2.46875 -7.25 2.40625 -7.015625 C 2.28125 -6.640625 1.796875 -5 1.609375 -4.75 C 1.5625 -4.6875 1.53125 -4.59375 1.484375 -4.53125 C 1.421875 -4.46875 1.375 -4.390625 1.328125 -4.3125 Z M 1.328125 -4.3125 "/></g></g></g><g fill="#ff914d" fill-opacity="1"><g transform="translate(178.345761, 277.999434)"><g><path d="M 4.921875 -0.0625 C 5.03125 -0.171875 5.171875 -0.375 5.21875 -0.515625 C 5.265625 -0.609375 5.328125 -0.703125 5.375 -0.796875 C 5.375 -0.8125 5.375 -0.8125 5.375 -0.8125 C 5.375 -0.8125 5.375 -0.8125 5.375 -0.828125 C 5.484375 -1.015625 5.640625 -1.34375 5.6875 -1.453125 C 5.703125 -1.5 5.75 -1.640625 5.78125 -1.765625 C 5.8125 -1.796875 5.828125 -1.84375 5.84375 -1.890625 C 5.84375 -1.90625 5.859375 -1.921875 5.859375 -1.9375 C 5.875 -1.953125 5.875 -1.984375 5.890625 -2 C 5.90625 -2 5.921875 -2.015625 5.921875 -2.046875 C 5.953125 -2.09375 5.9375 -2.140625 5.953125 -2.15625 C 5.96875 -2.171875 5.984375 -2.1875 5.984375 -2.21875 C 6.0625 -2.4375 5.859375 -2.421875 5.8125 -2.3125 C 5.765625 -2.234375 5.703125 -2.09375 5.671875 -2.03125 C 5.65625 -2.015625 5.640625 -2 5.640625 -1.984375 C 5.625 -1.96875 5.625 -1.9375 5.609375 -1.921875 C 5.609375 -1.921875 5.609375 -1.890625 5.609375 -1.859375 C 5.59375 -1.859375 5.578125 -1.84375 5.578125 -1.8125 C 5.5 -1.640625 5.296875 -1.3125 5.21875 -1.15625 C 5.21875 -1.140625 5.1875 -1.125 5.1875 -1.109375 C 5.1875 -1.09375 5.15625 -1.046875 5.125 -1 C 5.109375 -0.9375 5.078125 -0.921875 5.0625 -0.90625 C 5.046875 -0.859375 5.046875 -0.828125 5.03125 -0.796875 C 5.015625 -0.78125 5.015625 -0.765625 5 -0.75 C 5 -0.71875 4.984375 -0.671875 4.984375 -0.65625 C 4.984375 -0.640625 4.984375 -0.640625 4.984375 -0.625 C 3.8125 0.828125 3.9375 -1.546875 3.578125 -2.609375 C 3.546875 -2.6875 3.5625 -2.765625 3.53125 -2.84375 C 3.515625 -2.921875 3.515625 -3 3.484375 -3.078125 C 3.390625 -3.375 3.265625 -4.546875 3.1875 -4.96875 C 3.15625 -5.1875 3.109375 -5.40625 2.953125 -5.5625 C 2.90625 -5.625 2.8125 -5.625 2.71875 -5.65625 C 2.59375 -5.703125 2.125 -5.359375 2.046875 -5.296875 C 1.96875 -5.21875 1.859375 -5.15625 1.78125 -5.078125 C 1.65625 -4.984375 1.5625 -4.90625 1.453125 -4.78125 C 1.34375 -4.65625 1.1875 -4.484375 1.09375 -4.375 C 0.953125 -4.1875 0.828125 -4 0.6875 -3.8125 C 0.34375 -3.328125 -0.03125 -1.890625 0.015625 -1.25 C 0.03125 -1.078125 0.03125 -0.90625 0.046875 -0.734375 C 0.0625 -0.625 0.109375 -0.546875 0.15625 -0.46875 C 0.1875 -0.390625 0.21875 -0.3125 0.265625 -0.25 C 0.359375 -0.109375 0.5 -0.03125 0.65625 0.015625 C 0.734375 0.03125 0.796875 -0.015625 0.875 -0.015625 C 1.046875 -0.015625 1.203125 -0.140625 1.328125 -0.25 C 1.40625 -0.3125 1.46875 -0.375 1.5625 -0.40625 C 1.65625 -0.46875 1.734375 -0.5625 1.8125 -0.65625 C 1.859375 -0.71875 1.921875 -0.78125 2 -0.84375 C 2.015625 -0.875 2.03125 -0.90625 2.0625 -0.9375 C 2.125 -1 2.171875 -1.0625 2.21875 -1.140625 C 2.296875 -1.265625 2.5 -1.6875 2.53125 -1.796875 C 2.578125 -1.921875 2.6875 -2.140625 2.6875 -2.203125 C 2.6875 -2.21875 2.71875 -2.234375 2.71875 -2.21875 C 2.96875 -1.265625 3.6875 1.125 4.921875 -0.0625 Z M 2.390625 -2.34375 C 2.328125 -2.203125 2.359375 -2.21875 2.3125 -2.078125 C 2.265625 -1.921875 1.953125 -1.421875 1.859375 -1.265625 C 1.703125 -1.0625 1.515625 -0.890625 1.34375 -0.71875 C 1.265625 -0.65625 1.1875 -0.59375 1.09375 -0.53125 C 1 -0.46875 0.90625 -0.359375 0.796875 -0.34375 C 0.75 -0.34375 0.6875 -0.359375 0.671875 -0.40625 C 0.609375 -0.46875 0.5625 -0.578125 0.53125 -0.6875 C 0.5 -0.8125 0.5 -0.9375 0.484375 -1.0625 C 0.484375 -1.171875 0.5 -1.265625 0.5 -1.375 C 0.421875 -2.5625 0.984375 -3.75 1.703125 -4.65625 C 1.96875 -4.984375 1.890625 -4.859375 2.140625 -5.046875 C 2.1875 -5.125 2.25 -5.1875 2.328125 -5.1875 C 2.375 -5.203125 2.3125 -5.125 2.296875 -5.09375 C 2.25 -4.984375 2.25 -4.984375 2.234375 -4.859375 C 2.21875 -4.765625 2.25 -4.671875 2.25 -4.578125 C 2.234375 -4.40625 2.234375 -4.234375 2.265625 -4.0625 C 2.296875 -3.875 2.328125 -3.671875 2.359375 -3.484375 C 2.390625 -3.390625 2.4375 -3.3125 2.4375 -3.203125 C 2.46875 -3.0625 2.5 -2.921875 2.546875 -2.78125 C 2.578125 -2.71875 2.53125 -2.65625 2.5 -2.59375 C 2.46875 -2.5 2.4375 -2.4375 2.390625 -2.34375 Z M 2.390625 -2.34375 "/></g></g></g><g fill="#ff914d" fill-opacity="1"><g transform="translate(183.958446, 277.999434)"><g><path d="M 0.1875 -5.234375 C 0.09375 -5.125 0.03125 -4.984375 0.015625 -4.828125 C 0 -4.734375 0.015625 -4.625 0 -4.546875 C -0.015625 -4.453125 -0.015625 -4.34375 -0.03125 -4.25 C -0.03125 -4.21875 0 -4.171875 0 -4.125 C 0.015625 -4.09375 0 -4.046875 0 -4 C 0.015625 -3.90625 0 -3.8125 0.015625 -3.71875 C 0.03125 -3.59375 0.03125 -3.46875 0.03125 -3.359375 C 0.046875 -3.28125 0.0625 -3.1875 0.0625 -3.109375 C 0.0625 -3.03125 0.09375 -2.9375 0.0625 -2.875 C 0.0625 -2.828125 0.09375 -2.796875 0.078125 -2.78125 C 0.078125 -2.703125 0.09375 -2.625 0.09375 -2.53125 C 0.078125 -2.4375 0.078125 -2.34375 0.109375 -2.234375 C 0.109375 -2.1875 0.09375 -2.140625 0.109375 -2.09375 C 0.140625 -2 0.125 -1.90625 0.140625 -1.8125 C 0.15625 -1.703125 0.125 -1.59375 0.140625 -1.484375 C 0.15625 -1.40625 0.140625 -1.34375 0.15625 -1.265625 C 0.171875 -1.203125 0.171875 -1.125 0.171875 -1.0625 C 0.171875 -0.984375 0.1875 -0.90625 0.1875 -0.828125 C 0.21875 -0.640625 0.25 -0.46875 0.296875 -0.3125 C 0.328125 -0.234375 0.359375 -0.171875 0.40625 -0.109375 C 0.546875 0.03125 0.828125 0.109375 0.859375 -0.1875 C 0.859375 -0.234375 0.921875 -0.265625 0.953125 -0.328125 C 0.984375 -0.390625 1 -0.453125 1.046875 -0.515625 C 1.0625 -0.59375 1.0625 -0.671875 1.125 -0.75 C 1.140625 -0.796875 1.15625 -0.859375 1.171875 -0.921875 C 1.203125 -1.046875 1.265625 -1.1875 1.296875 -1.328125 C 1.34375 -1.453125 1.390625 -1.59375 1.40625 -1.734375 C 1.421875 -1.78125 1.421875 -1.796875 1.421875 -1.828125 C 1.46875 -1.921875 1.484375 -2.03125 1.515625 -2.125 C 1.5625 -2.28125 1.59375 -2.453125 1.65625 -2.609375 C 1.703125 -2.6875 1.71875 -2.78125 1.75 -2.859375 C 1.8125 -3.03125 1.84375 -3.234375 1.921875 -3.390625 C 1.9375 -3.453125 1.96875 -3.53125 2 -3.578125 C 2.015625 -3.6875 2.078125 -3.78125 2.140625 -3.875 C 2.171875 -3.953125 2.203125 -4.03125 2.25 -4.109375 C 2.421875 -4.328125 2.796875 -5.09375 2.875 -4.46875 C 2.875 -4.453125 2.859375 -4.40625 2.859375 -4.390625 C 2.875 -4.28125 2.875 -4.171875 2.875 -4.078125 C 2.859375 -3.78125 2.859375 -2.734375 2.859375 -2.421875 C 2.859375 -2.28125 2.875 -2.15625 2.875 -2.03125 C 2.875 -2 2.875 -1.984375 2.875 -1.9375 C 2.90625 -1.671875 2.9375 -1.34375 3 -1.078125 C 3.015625 -0.953125 3.046875 -0.828125 3.09375 -0.6875 C 3.109375 -0.609375 3.15625 -0.515625 3.15625 -0.40625 C 3.171875 -0.34375 3.21875 -0.28125 3.234375 -0.21875 C 3.25 -0.171875 3.25 -0.109375 3.28125 -0.0625 C 3.3125 0.015625 3.359375 0.078125 3.40625 0.140625 C 3.5 0.25 3.515625 0.359375 3.625 0.4375 C 3.671875 0.46875 3.71875 0.546875 3.78125 0.5625 C 3.84375 0.59375 3.90625 0.625 3.984375 0.625 C 4.0625 0.640625 4.125 0.625 4.203125 0.625 C 4.234375 0.625 4.25 0.625 4.28125 0.609375 C 4.296875 0.578125 4.328125 0.578125 4.375 0.5625 C 4.390625 0.546875 4.4375 0.546875 4.453125 0.515625 C 4.484375 0.46875 4.546875 0.453125 4.5625 0.40625 C 4.609375 0.34375 4.625 0.265625 4.6875 0.21875 C 4.703125 0.171875 4.71875 0.109375 4.765625 0.078125 C 4.78125 0.03125 4.765625 -0.015625 4.796875 -0.046875 C 4.828125 -0.09375 4.828125 -0.140625 4.84375 -0.1875 C 4.90625 -0.28125 4.90625 -0.40625 4.96875 -0.5 C 5 -0.5625 5.015625 -0.625 5.046875 -0.6875 C 5.171875 -0.96875 5.3125 -1.25 5.34375 -1.3125 C 5.34375 -1.359375 5.40625 -1.484375 5.4375 -1.625 C 5.453125 -1.65625 5.46875 -1.703125 5.484375 -1.734375 C 5.484375 -1.765625 5.5 -1.78125 5.515625 -1.78125 C 5.546875 -1.859375 5.5625 -1.9375 5.59375 -2 C 5.609375 -2.03125 5.625 -2.046875 5.625 -2.0625 C 5.703125 -2.28125 5.5 -2.265625 5.453125 -2.171875 C 5.40625 -2.078125 5.359375 -1.953125 5.328125 -1.890625 C 5.328125 -1.859375 5.3125 -1.859375 5.296875 -1.84375 C 5.296875 -1.8125 5.265625 -1.796875 5.265625 -1.78125 C 5.265625 -1.765625 5.265625 -1.734375 5.265625 -1.71875 C 5.25 -1.703125 5.25 -1.6875 5.234375 -1.671875 C 5.234375 -1.671875 4.5 -0.03125 4.4375 0.03125 C 4.390625 0.078125 4.328125 0.15625 4.234375 0.1875 C 4.171875 0.234375 4.078125 0.296875 4.015625 0.25 C 3.96875 0.203125 4 0.140625 3.984375 0.09375 C 3.953125 -0.015625 3.90625 -0.0625 3.890625 -0.171875 C 3.890625 -0.25 3.84375 -0.328125 3.84375 -0.390625 C 3.8125 -0.46875 3.8125 -0.546875 3.8125 -0.640625 C 3.8125 -0.6875 3.765625 -0.75 3.765625 -0.8125 C 3.78125 -0.90625 3.75 -1.1875 3.734375 -1.296875 C 3.703125 -1.421875 3.703125 -1.546875 3.6875 -1.671875 C 3.671875 -1.734375 3.703125 -1.8125 3.6875 -1.875 C 3.671875 -1.953125 3.671875 -2.03125 3.671875 -2.109375 C 3.671875 -2.140625 3.671875 -2.171875 3.671875 -2.21875 C 3.671875 -2.28125 3.65625 -2.34375 3.625 -2.40625 C 3.609375 -2.4375 3.65625 -2.484375 3.640625 -2.515625 C 3.640625 -2.53125 3.609375 -3.78125 3.59375 -4.015625 C 3.578125 -4.109375 3.5625 -4.203125 3.546875 -4.3125 C 3.53125 -4.375 3.515625 -4.4375 3.484375 -4.484375 C 3.4375 -4.5625 3.390625 -4.65625 3.359375 -4.734375 C 3.328125 -4.796875 3.265625 -4.84375 3.234375 -4.90625 C 3.171875 -4.96875 3.109375 -5.015625 3.046875 -5.046875 C 2.9375 -5.09375 2.828125 -5.125 2.71875 -5.09375 C 2.640625 -5.0625 2.578125 -5 2.5 -4.96875 C 2.453125 -4.9375 2.421875 -4.90625 2.390625 -4.859375 C 2.28125 -4.75 2.15625 -4.609375 2.09375 -4.46875 C 2.078125 -4.40625 2.03125 -4.359375 2 -4.3125 C 2 -4.25 1.953125 -4.203125 1.921875 -4.15625 C 1.90625 -4.109375 1.890625 -4.0625 1.859375 -4.015625 C 1.84375 -3.953125 1.796875 -3.90625 1.78125 -3.859375 C 1.765625 -3.765625 1.703125 -3.6875 1.6875 -3.609375 C 1.640625 -3.5 1.578125 -3.375 1.5625 -3.265625 C 1.5625 -3.15625 1.484375 -3.046875 1.484375 -2.9375 C 1.484375 -2.859375 1.421875 -2.78125 1.40625 -2.71875 C 1.359375 -2.59375 1.3125 -2.5 1.265625 -2.375 C 1.25 -2.3125 1.234375 -2.234375 1.203125 -2.15625 C 1.171875 -2.09375 1.15625 -2.03125 1.140625 -1.953125 C 1.125 -1.875 1.078125 -1.796875 1.0625 -1.71875 C 1.03125 -1.578125 1 -1.4375 0.984375 -1.28125 C 0.984375 -1.234375 0.984375 -1.1875 0.953125 -1.125 C 0.9375 -1.109375 0.921875 -1.71875 0.9375 -1.953125 C 0.9375 -2 0.953125 -2.046875 0.953125 -2.09375 C 0.9375 -2.140625 0.9375 -2.203125 0.9375 -2.25 C 0.921875 -2.4375 0.90625 -2.65625 0.90625 -2.828125 C 0.890625 -2.890625 0.90625 -2.96875 0.90625 -3.03125 C 0.84375 -3.328125 0.890625 -3.546875 0.8125 -3.859375 C 0.765625 -3.984375 0.796875 -4.140625 0.765625 -4.265625 C 0.765625 -4.328125 0.765625 -4.390625 0.75 -4.453125 C 0.71875 -4.53125 0.734375 -4.609375 0.71875 -4.6875 C 0.703125 -4.734375 0.734375 -4.765625 0.71875 -4.8125 C 0.71875 -4.84375 0.71875 -4.90625 0.703125 -4.9375 C 0.640625 -5.09375 0.515625 -5.203125 0.375 -5.28125 C 0.3125 -5.3125 0.25 -5.28125 0.1875 -5.234375 Z M 0.1875 -5.234375 "/></g></g></g><g fill="#ff914d" fill-opacity="1"><g transform="translate(189.237194, 277.999434)"><g><path d="M 1.796875 -5.234375 C 1.765625 -5.21875 1.703125 -5.21875 1.671875 -5.1875 C 1.625 -5.140625 1.5625 -5.140625 1.5 -5.125 C 1.40625 -5.046875 1.265625 -5 1.171875 -4.921875 C 1.09375 -4.859375 1.015625 -4.8125 0.953125 -4.734375 C 0.90625 -4.6875 0.859375 -4.640625 0.828125 -4.59375 C 0.78125 -4.546875 0.734375 -4.5 0.6875 -4.453125 C 0.640625 -4.390625 0.609375 -4.328125 0.5625 -4.265625 C 0.515625 -4.171875 0.46875 -4.109375 0.40625 -4.015625 C 0.359375 -3.890625 0.28125 -3.78125 0.265625 -3.65625 C 0.25 -3.53125 0.1875 -3.453125 0.1875 -3.34375 C 0.15625 -3.234375 0.109375 -3.15625 0.109375 -3.046875 C 0.109375 -2.984375 0.078125 -2.921875 0.078125 -2.859375 C 0.078125 -2.765625 0.03125 -2.6875 0.03125 -2.59375 C 0.046875 -2.265625 -0.015625 -2.140625 0.046875 -1.734375 C 0.0625 -1.671875 0.09375 -1.609375 0.109375 -1.546875 C 0.109375 -1.484375 0.125 -1.4375 0.140625 -1.375 C 0.1875 -1.21875 0.21875 -1.0625 0.3125 -0.90625 C 0.328125 -0.859375 0.359375 -0.796875 0.40625 -0.734375 C 0.5 -0.625 0.53125 -0.5625 0.625 -0.46875 C 0.6875 -0.40625 0.765625 -0.328125 0.828125 -0.265625 C 0.921875 -0.1875 1.71875 0.0625 1.828125 0.046875 C 2.375 0.03125 2.625 -0.0625 2.890625 -0.25 C 3.234375 -0.421875 3.390625 -0.546875 3.59375 -0.875 C 3.625 -0.890625 3.65625 -0.9375 3.671875 -0.984375 C 3.6875 -1.03125 3.71875 -1.0625 3.734375 -1.109375 L 3.734375 -1.125 C 3.765625 -1.1875 3.8125 -1.25 3.828125 -1.328125 C 3.84375 -1.328125 3.84375 -1.328125 3.84375 -1.328125 C 3.84375 -1.34375 3.84375 -1.34375 3.84375 -1.34375 C 3.953125 -1.53125 4.03125 -1.703125 4.078125 -1.8125 C 4.09375 -1.859375 4.125 -2 4.171875 -2.125 C 4.1875 -2.15625 4.203125 -2.203125 4.234375 -2.234375 C 4.234375 -2.265625 4.25 -2.28125 4.25 -2.296875 C 4.25 -2.3125 4.265625 -2.328125 4.265625 -2.359375 C 4.28125 -2.359375 4.3125 -2.375 4.3125 -2.390625 C 4.328125 -2.453125 4.328125 -2.5 4.328125 -2.5 C 4.34375 -2.53125 4.359375 -2.546875 4.359375 -2.5625 C 4.421875 -2.75 4.25 -2.78125 4.203125 -2.65625 C 4.171875 -2.578125 4.109375 -2.4375 4.0625 -2.359375 C 4.0625 -2.359375 4.046875 -2.34375 4.03125 -2.3125 C 4.03125 -2.296875 4 -2.28125 3.984375 -2.265625 C 3.96875 -2.25 3.96875 -2.203125 3.953125 -2.15625 C 3.890625 -1.984375 3.78125 -1.8125 3.703125 -1.65625 C 3.6875 -1.640625 3.671875 -1.625 3.671875 -1.609375 C 3.671875 -1.59375 3.640625 -1.578125 3.625 -1.5625 C 3.609375 -1.546875 3.609375 -1.53125 3.609375 -1.5 C 3.59375 -1.484375 3.609375 -1.46875 3.59375 -1.4375 C 3.59375 -1.421875 3.5625 -1.421875 3.546875 -1.40625 C 3.53125 -1.359375 3.53125 -1.34375 3.5 -1.296875 C 3.5 -1.28125 3.5 -1.265625 3.484375 -1.25 C 3.453125 -1.21875 3.453125 -1.203125 3.421875 -1.171875 C 3.328125 -1.046875 3.28125 -0.875 3.171875 -0.78125 C 3.09375 -0.71875 3.015625 -0.625 2.921875 -0.578125 C 2.875 -0.546875 2.84375 -0.515625 2.78125 -0.484375 C 2.640625 -0.4375 2.5 -0.390625 2.34375 -0.375 C 2.265625 -0.359375 2.0625 -0.34375 1.96875 -0.359375 C 1.921875 -0.375 1.890625 -0.375 1.859375 -0.390625 C 1.40625 -0.484375 1.015625 -0.890625 0.875 -1.21875 C 0.859375 -1.265625 0.875 -1.3125 0.84375 -1.359375 C 0.828125 -1.421875 0.828125 -1.5 0.8125 -1.5625 C 0.78125 -1.625 0.796875 -1.671875 0.78125 -1.71875 C 0.765625 -1.78125 0.796875 -1.84375 0.796875 -1.90625 C 0.78125 -1.953125 0.765625 -2.015625 0.765625 -2.078125 C 0.765625 -2.125 0.78125 -2.171875 0.78125 -2.234375 C 0.765625 -2.296875 0.796875 -2.359375 0.796875 -2.4375 C 0.796875 -2.515625 0.828125 -2.59375 0.828125 -2.671875 C 0.828125 -2.71875 0.859375 -2.78125 0.859375 -2.828125 C 0.859375 -2.9375 0.859375 -3.015625 0.859375 -3.125 C 0.875 -3.1875 0.90625 -3.25 0.90625 -3.3125 C 0.984375 -3.53125 1.0625 -3.890625 1.1875 -4.046875 C 1.265625 -4.171875 1.421875 -4.53125 1.53125 -4.625 C 1.65625 -4.75 1.78125 -4.859375 1.921875 -4.953125 C 2 -4.984375 2.03125 -5.03125 2.09375 -5.046875 C 2.140625 -5.046875 2.203125 -5.09375 2.25 -5.09375 C 2.375 -5.078125 2.5 -5.046875 2.578125 -4.953125 C 2.640625 -4.90625 2.71875 -4.890625 2.765625 -4.828125 C 2.796875 -4.78125 2.78125 -4.71875 2.796875 -4.65625 C 2.796875 -4.640625 2.84375 -4.65625 2.859375 -4.671875 C 2.890625 -4.75 2.890625 -4.84375 2.828125 -4.90625 C 2.734375 -4.984375 2.65625 -5.046875 2.578125 -5.125 C 2.546875 -5.125 2.53125 -5.171875 2.5 -5.1875 C 2.46875 -5.1875 2.4375 -5.203125 2.390625 -5.234375 C 2.296875 -5.28125 2.203125 -5.296875 2.09375 -5.265625 C 2 -5.265625 1.890625 -5.265625 1.796875 -5.234375 Z M 1.796875 -5.234375 "/></g></g></g><g fill="#ff914d" fill-opacity="1"><g transform="translate(193.21873, 277.999434)"><g><path d="M 1.015625 -3.421875 C 1.0625 -3.671875 1.109375 -3.9375 1.203125 -4.171875 C 1.234375 -4.25 1.265625 -4.328125 1.3125 -4.40625 C 1.375 -4.515625 1.484375 -4.59375 1.5625 -4.6875 C 1.609375 -4.734375 1.65625 -4.75 1.6875 -4.765625 C 1.734375 -4.828125 1.78125 -4.859375 1.84375 -4.921875 C 1.875 -4.984375 1.921875 -5.03125 2 -5.046875 C 2.0625 -5.078125 2.09375 -5.125 2.140625 -5.140625 C 2.203125 -5.171875 2.21875 -5.21875 2.28125 -5.234375 C 2.421875 -5.28125 2.546875 -5.34375 2.6875 -5.359375 C 2.8125 -5.375 2.9375 -5.265625 2.9375 -5.140625 C 2.90625 -4.78125 2.875 -4.8125 2.796875 -4.515625 L 2.78125 -4.453125 C 2.765625 -4.421875 2.765625 -4.390625 2.75 -4.375 C 2.6875 -4.3125 2.65625 -4.234375 2.609375 -4.171875 C 2.5625 -4.109375 2.5 -4.046875 2.46875 -3.984375 C 2.375 -3.859375 2.265625 -3.765625 2.15625 -3.640625 C 2.140625 -3.59375 2.109375 -3.5625 2.078125 -3.53125 C 2.046875 -3.484375 2.03125 -3.453125 2 -3.421875 C 1.9375 -3.375 1.875 -3.375 1.84375 -3.328125 C 1.703125 -3.234375 1.578125 -3.140625 1.453125 -3.0625 C 1.34375 -3 1.21875 -2.9375 1.109375 -2.90625 C 1.046875 -2.890625 0.984375 -2.8125 0.9375 -2.8125 C 0.9375 -2.828125 0.9375 -2.859375 0.9375 -2.875 C 0.953125 -2.953125 0.953125 -3.046875 0.953125 -3.140625 C 0.96875 -3.171875 0.984375 -3.21875 0.984375 -3.25 C 0.984375 -3.3125 1 -3.359375 1.015625 -3.421875 Z M 0.859375 -2.109375 C 0.859375 -2.203125 0.875 -2.546875 0.921875 -2.578125 C 0.96875 -2.625 1.046875 -2.625 1.09375 -2.65625 C 1.1875 -2.703125 1.296875 -2.71875 1.40625 -2.78125 C 1.46875 -2.8125 1.546875 -2.84375 1.609375 -2.875 C 1.6875 -2.9375 1.78125 -2.984375 1.859375 -3.046875 C 1.921875 -3.09375 2 -3.140625 2.078125 -3.1875 C 2.140625 -3.234375 2.21875 -3.28125 2.28125 -3.328125 C 2.34375 -3.390625 2.40625 -3.453125 2.46875 -3.53125 C 2.5 -3.609375 2.578125 -3.671875 2.625 -3.734375 C 2.6875 -3.8125 2.75 -3.921875 2.84375 -4 C 2.875 -4.03125 2.90625 -4.09375 2.9375 -4.140625 C 2.953125 -4.203125 3.015625 -4.25 3.03125 -4.3125 C 3.078125 -4.578125 3.28125 -4.953125 3.171875 -5.234375 C 3.15625 -5.3125 3.09375 -5.375 3.046875 -5.4375 C 2.984375 -5.5 2.90625 -5.5625 2.8125 -5.59375 C 2.65625 -5.671875 2.140625 -5.59375 1.984375 -5.5625 C 1.78125 -5.5 1.625 -5.390625 1.453125 -5.296875 C 1.28125 -5.203125 1.125 -5.109375 0.984375 -4.984375 C 0.859375 -4.890625 0.78125 -4.765625 0.6875 -4.671875 C 0.625 -4.59375 0.59375 -4.515625 0.546875 -4.421875 C 0.484375 -4.34375 0.46875 -4.25 0.421875 -4.15625 C 0.3125 -3.953125 0.25 -3.71875 0.1875 -3.5 C 0.1875 -3.40625 0.15625 -3.328125 0.140625 -3.25 C 0.125 -3.203125 0.109375 -3.140625 0.109375 -3.09375 C 0.109375 -3.015625 0.078125 -2.953125 0.078125 -2.890625 C 0.078125 -2.796875 0.03125 -2.71875 0.03125 -2.640625 C 0.046875 -2.296875 -0.015625 -2.171875 0.046875 -1.78125 C 0.0625 -1.703125 0.09375 -1.640625 0.109375 -1.578125 C 0.109375 -1.53125 0.125 -1.484375 0.140625 -1.421875 C 0.1875 -1.265625 0.21875 -1.109375 0.3125 -0.96875 C 0.328125 -0.90625 0.359375 -0.828125 0.40625 -0.78125 C 0.5 -0.671875 0.53125 -0.609375 0.625 -0.515625 C 0.6875 -0.453125 0.765625 -0.375 0.828125 -0.3125 C 0.921875 -0.234375 1.71875 0.03125 1.828125 0.015625 C 2.375 0 2.625 -0.109375 2.890625 -0.28125 C 3.234375 -0.46875 3.390625 -0.59375 3.59375 -0.90625 C 3.625 -0.921875 3.65625 -0.984375 3.671875 -1.03125 C 3.6875 -1.0625 3.71875 -1.109375 3.734375 -1.140625 L 3.734375 -1.15625 C 3.765625 -1.21875 3.8125 -1.28125 3.828125 -1.359375 C 3.84375 -1.359375 3.84375 -1.359375 3.84375 -1.359375 C 3.84375 -1.375 3.84375 -1.375 3.84375 -1.375 C 3.953125 -1.5625 4.03125 -1.75 4.078125 -1.859375 C 4.09375 -1.90625 4.125 -2.03125 4.171875 -2.15625 C 4.1875 -2.203125 4.203125 -2.234375 4.234375 -2.28125 C 4.234375 -2.296875 4.25 -2.3125 4.25 -2.34375 C 4.25 -2.359375 4.265625 -2.359375 4.265625 -2.390625 C 4.28125 -2.40625 4.3125 -2.421875 4.3125 -2.4375 C 4.328125 -2.5 4.328125 -2.53125 4.328125 -2.5625 C 4.34375 -2.578125 4.359375 -2.578125 4.359375 -2.609375 C 4.421875 -2.796875 4.25 -2.8125 4.203125 -2.703125 C 4.171875 -2.609375 4.109375 -2.484375 4.0625 -2.40625 C 4.0625 -2.390625 4.046875 -2.375 4.03125 -2.359375 C 4.03125 -2.34375 4 -2.328125 3.984375 -2.296875 C 3.96875 -2.28125 3.96875 -2.234375 3.953125 -2.203125 C 3.890625 -2.015625 3.78125 -1.859375 3.703125 -1.703125 C 3.6875 -1.6875 3.671875 -1.671875 3.671875 -1.640625 C 3.671875 -1.640625 3.640625 -1.625 3.625 -1.609375 C 3.609375 -1.578125 3.609375 -1.5625 3.609375 -1.546875 C 3.59375 -1.53125 3.609375 -1.5 3.59375 -1.484375 C 3.59375 -1.46875 3.5625 -1.46875 3.546875 -1.4375 C 3.53125 -1.40625 3.53125 -1.375 3.5 -1.34375 C 3.5 -1.328125 3.5 -1.296875 3.484375 -1.28125 C 3.453125 -1.265625 3.453125 -1.234375 3.421875 -1.203125 C 3.34375 -1.109375 3.09375 -0.734375 2.875 -0.625 C 2.828125 -0.609375 2.796875 -0.5625 2.734375 -0.546875 C 2.59375 -0.5 2.453125 -0.4375 2.296875 -0.421875 C 2.21875 -0.40625 2.015625 -0.40625 1.921875 -0.421875 C 1.890625 -0.421875 1.859375 -0.4375 1.8125 -0.4375 C 1.359375 -0.546875 1.09375 -0.859375 0.953125 -1.203125 C 0.921875 -1.234375 0.9375 -1.28125 0.921875 -1.34375 C 0.875 -1.484375 0.859375 -1.953125 0.859375 -2.109375 Z M 0.859375 -2.109375 "/></g></g></g><g fill="#ff914d" fill-opacity="1"><g transform="translate(200.424033, 277.999434)"><g><path d="M 2.46875 -8.796875 C 2.28125 -9.015625 1.765625 -8.96875 1.671875 -8.859375 C 1.65625 -8.828125 1.609375 -8.828125 1.59375 -8.8125 C 1.546875 -8.75 1.484375 -8.71875 1.453125 -8.6875 C 1.375 -8.609375 1.28125 -8.5625 1.234375 -8.46875 C 1.203125 -8.421875 1.15625 -8.375 1.125 -8.3125 C 1.046875 -8.234375 0.96875 -8.140625 0.90625 -8.046875 C 0.890625 -7.984375 0.84375 -7.9375 0.8125 -7.875 C 0.765625 -7.796875 0.734375 -7.71875 0.6875 -7.640625 C 0.046875 -6.375 0.140625 -5.8125 0.03125 -5.078125 C 0.03125 -5.03125 0.03125 -4.984375 0.015625 -4.921875 C 0.015625 -4.859375 -0.015625 -4.796875 0 -4.734375 C 0 -4.671875 -0.015625 -4.609375 -0.03125 -4.546875 C -0.03125 -4.46875 -0.03125 -4.390625 -0.03125 -4.328125 C 0 -3.59375 -0.078125 -3.296875 0.015625 -2.625 C 0.03125 -2.515625 0.046875 -2.4375 0.0625 -2.328125 C 0.078125 -2.21875 0.109375 -2.09375 0.125 -1.984375 C 0.171875 -1.796875 0.25 -1.640625 0.3125 -1.484375 C 0.328125 -1.390625 0.359375 -1.28125 0.40625 -1.203125 C 0.46875 -1.109375 0.5 -1.015625 0.546875 -0.90625 C 0.59375 -0.828125 0.84375 -0.421875 0.875 -0.40625 C 0.921875 -0.34375 0.984375 -0.3125 1.046875 -0.265625 C 1.328125 -0.046875 1.5 0.109375 1.90625 0.03125 C 1.953125 0.015625 2.015625 0.03125 2.078125 0.015625 C 2.125 -0.015625 2.171875 -0.03125 2.21875 -0.03125 C 2.28125 -0.03125 2.359375 -0.078125 2.40625 -0.109375 C 2.46875 -0.125 2.53125 -0.140625 2.578125 -0.1875 C 3 -0.671875 3.34375 -1.484375 3.53125 -2.109375 C 3.546875 -2.140625 3.5625 -2.1875 3.578125 -2.21875 C 3.59375 -2.25 3.59375 -2.265625 3.59375 -2.28125 C 3.609375 -2.296875 3.609375 -2.3125 3.625 -2.34375 C 3.65625 -2.40625 3.671875 -2.453125 3.6875 -2.5 C 3.703125 -2.515625 3.71875 -2.53125 3.71875 -2.546875 C 3.8125 -2.796875 3.59375 -2.75 3.546875 -2.65625 C 3.5 -2.578125 3.453125 -2.4375 3.40625 -2.375 C 3.40625 -2.359375 3.390625 -2.34375 3.375 -2.328125 C 3.359375 -2.28125 3.375 -2.234375 3.359375 -2.21875 C 3.34375 -2.203125 3.328125 -2.171875 3.328125 -2.15625 C 2.9375 -1.265625 2.90625 -1.125 2.390625 -0.46875 C 2.234375 -0.265625 2.078125 -0.3125 1.859375 -0.28125 C 1.6875 -0.25 1.546875 -0.34375 1.421875 -0.46875 C 1.390625 -0.5 1.15625 -0.921875 1.125 -1.03125 C 1.109375 -1.078125 1 -1.453125 1 -1.515625 C 0.984375 -1.578125 0.96875 -1.640625 0.953125 -1.703125 C 0.9375 -1.765625 0.9375 -1.8125 0.921875 -1.859375 C 0.90625 -1.90625 0.90625 -1.953125 0.890625 -2 C 0.84375 -2.09375 0.875 -2.21875 0.859375 -2.3125 C 0.859375 -2.390625 0.828125 -2.453125 0.828125 -2.53125 C 0.828125 -2.578125 0.828125 -2.40625 0.828125 -2.46875 C 0.828125 -2.546875 0.828125 -2.625 0.828125 -2.703125 C 0.828125 -2.890625 0.84375 -2.875 0.8125 -3.078125 C 0.796875 -3.15625 0.828125 -3.25 0.84375 -3.3125 C 0.859375 -3.359375 0.984375 -3.4375 1.015625 -3.46875 C 1.046875 -3.53125 1.109375 -3.5625 1.140625 -3.609375 C 1.171875 -3.65625 1.203125 -3.6875 1.234375 -3.734375 C 1.296875 -3.8125 1.390625 -3.890625 1.4375 -3.984375 C 1.515625 -4.109375 1.609375 -4.21875 1.6875 -4.328125 C 1.734375 -4.421875 1.859375 -4.625 1.921875 -4.734375 C 2.359375 -5.40625 2.8125 -7.015625 2.734375 -7.78125 C 2.71875 -7.84375 2.6875 -8.390625 2.671875 -8.390625 C 2.640625 -8.46875 2.640625 -8.53125 2.609375 -8.59375 C 2.578125 -8.671875 2.515625 -8.734375 2.46875 -8.796875 Z M 1.328125 -4.3125 C 0.84375 -3.734375 0.734375 -3.5 0.859375 -4.421875 C 0.875 -4.546875 0.890625 -4.640625 0.90625 -4.765625 C 0.921875 -4.828125 1 -5.84375 1.03125 -5.90625 C 1.0625 -6 1.0625 -6.109375 1.078125 -6.21875 C 1.078125 -6.265625 1.109375 -6.3125 1.125 -6.359375 C 1.125 -6.453125 1.125 -6.5625 1.140625 -6.640625 C 1.15625 -6.6875 1.171875 -6.71875 1.171875 -6.765625 C 1.171875 -6.8125 1.234375 -6.859375 1.234375 -6.921875 C 1.234375 -7.015625 1.25 -7.125 1.28125 -7.21875 C 1.328125 -7.328125 1.34375 -7.453125 1.390625 -7.5625 C 1.421875 -7.671875 1.453125 -7.765625 1.515625 -7.875 C 1.5625 -7.953125 1.5625 -8 1.625 -8.078125 C 1.78125 -8.3125 1.78125 -8.234375 1.890625 -8.359375 C 1.953125 -8.421875 2 -8.515625 2.09375 -8.546875 C 2.140625 -8.5625 2.171875 -8.609375 2.21875 -8.609375 C 2.25 -8.609375 2.296875 -8.609375 2.34375 -8.578125 C 2.421875 -8.53125 2.4375 -8.453125 2.4375 -8.375 C 2.453125 -8.3125 2.484375 -8.265625 2.5 -8.21875 C 2.5 -8.1875 2.515625 -7.796875 2.515625 -7.765625 C 2.5 -7.515625 2.46875 -7.25 2.40625 -7.015625 C 2.28125 -6.640625 1.796875 -5 1.609375 -4.75 C 1.5625 -4.6875 1.53125 -4.59375 1.484375 -4.53125 C 1.421875 -4.46875 1.375 -4.390625 1.328125 -4.3125 Z M 1.328125 -4.3125 "/></g></g></g><g fill="#ff914d" fill-opacity="1"><g transform="translate(203.724852, 277.999434)"><g><path d="M 0.46875 -6.859375 C 0.3125 -6.71875 0.34375 -6.375 0.421875 -6.21875 C 0.46875 -6.125 0.515625 -6.015625 0.59375 -5.9375 C 0.640625 -5.90625 0.6875 -5.859375 0.75 -5.84375 C 0.859375 -5.84375 0.984375 -5.84375 1.078125 -5.890625 C 1.203125 -5.953125 1.1875 -5.953125 1.28125 -6.109375 C 1.390625 -6.265625 1.359375 -6.421875 1.296875 -6.59375 C 1.28125 -6.65625 1.21875 -6.703125 1.1875 -6.734375 C 1.0625 -6.828125 0.9375 -6.890625 0.8125 -6.9375 C 0.6875 -6.953125 0.5625 -6.9375 0.46875 -6.859375 Z M 0.734375 -5.21875 C 0.40625 -5.359375 0.34375 -5.109375 0.25 -4.828125 C 0.234375 -4.765625 0.203125 -4.703125 0.1875 -4.65625 C 0.125 -4.453125 0.109375 -4.234375 0.0625 -4.03125 C 0.046875 -3.890625 0.046875 -3.765625 0.046875 -3.625 C 0.03125 -3.53125 0.03125 -3.4375 0.03125 -3.328125 C 0.03125 -3.09375 0.046875 -2.875 0.03125 -2.65625 C 0.03125 -2.515625 0.03125 -2.390625 0.046875 -2.25 C 0.046875 -2.125 0.078125 -1.984375 0.09375 -1.859375 C 0.109375 -1.703125 0.125 -1.5625 0.171875 -1.421875 C 0.1875 -1.328125 0.203125 -1.21875 0.25 -1.140625 C 0.28125 -1.078125 0.3125 -1.03125 0.328125 -0.96875 C 0.375 -0.875 0.421875 -0.796875 0.46875 -0.71875 C 0.546875 -0.59375 0.625 -0.46875 0.734375 -0.34375 C 0.78125 -0.296875 0.828125 -0.25 0.890625 -0.203125 C 0.9375 -0.15625 1 -0.140625 1.046875 -0.109375 C 1.09375 -0.078125 1.15625 -0.078125 1.203125 -0.046875 C 1.265625 -0.03125 1.3125 -0.0625 1.359375 -0.0625 C 1.453125 -0.078125 1.53125 -0.078125 1.609375 -0.109375 C 1.890625 -0.1875 1.875 -0.234375 2.09375 -0.4375 C 2.203125 -0.53125 2.34375 -0.75 2.390625 -0.890625 C 2.53125 -1.125 2.671875 -1.40625 2.78125 -1.65625 C 2.796875 -1.703125 2.84375 -1.84375 2.875 -1.96875 C 2.90625 -2 2.921875 -2.0625 2.9375 -2.09375 C 2.9375 -2.109375 2.9375 -2.125 2.953125 -2.140625 C 2.96875 -2.15625 2.96875 -2.1875 2.984375 -2.203125 C 3.015625 -2.265625 3.015625 -2.3125 3.046875 -2.359375 C 3.046875 -2.375 3.0625 -2.390625 3.078125 -2.421875 C 3.15625 -2.65625 2.953125 -2.625 2.890625 -2.515625 C 2.859375 -2.4375 2.796875 -2.296875 2.78125 -2.234375 C 2.75 -2.1875 2.71875 -2.125 2.71875 -2.078125 C 2.703125 -2.0625 2.6875 -2.046875 2.671875 -2.015625 C 2.609375 -1.859375 2.46875 -1.6875 2.390625 -1.53125 C 2.390625 -1.5 2.375 -1.484375 2.359375 -1.484375 C 2.359375 -1.453125 2.328125 -1.421875 2.296875 -1.375 C 2.265625 -1.28125 2.21875 -1.203125 2.171875 -1.109375 C 2.046875 -0.828125 1.890625 -0.6875 1.65625 -0.5 C 1.609375 -0.46875 1.546875 -0.453125 1.484375 -0.421875 C 1.40625 -0.390625 1.265625 -0.359375 1.203125 -0.4375 C 1.109375 -0.546875 1.046875 -0.703125 1.015625 -0.859375 C 1 -0.9375 0.984375 -1.015625 0.984375 -1.109375 C 0.96875 -1.203125 0.953125 -1.3125 0.9375 -1.421875 C 0.921875 -1.46875 0.921875 -1.5 0.921875 -1.546875 C 0.9375 -1.640625 0.90625 -1.734375 0.921875 -1.828125 C 0.921875 -1.921875 0.9375 -2 0.9375 -2.09375 C 0.9375 -2.15625 0.921875 -2.21875 0.9375 -2.28125 C 0.953125 -2.34375 0.921875 -2.40625 0.9375 -2.46875 C 0.953125 -2.578125 0.953125 -2.859375 0.953125 -2.9375 C 0.9375 -2.984375 0.953125 -3.015625 0.953125 -3.0625 C 0.921875 -3.1875 0.96875 -3.3125 0.96875 -3.453125 C 0.984375 -3.53125 1 -3.609375 0.984375 -3.703125 C 0.984375 -3.75 1 -3.8125 1 -3.859375 C 1 -3.921875 0.984375 -3.984375 0.984375 -4.046875 C 1.015625 -4.109375 1.015625 -4.1875 1.015625 -4.25 C 1.015625 -4.328125 0.984375 -4.671875 0.984375 -4.765625 C 0.96875 -4.828125 0.9375 -4.859375 0.9375 -4.90625 C 0.921875 -5.03125 0.84375 -5.15625 0.734375 -5.21875 Z M 0.734375 -5.21875 "/></g></g></g><g fill="#ff914d" fill-opacity="1"><g transform="translate(206.396338, 277.999434)"><g><path d="M 2.21875 -7.296875 C 2.125 -7.265625 2.03125 -7.234375 1.9375 -7.1875 C 1.8125 -7.15625 1.703125 -7.0625 1.609375 -6.953125 C 1.515625 -6.875 1.4375 -6.796875 1.375 -6.703125 C 1.28125 -6.578125 1.203125 -6.4375 1.140625 -6.3125 C 1.09375 -6.21875 1.046875 -6.140625 1.015625 -6.0625 C 1 -6.015625 0.96875 -5.96875 0.953125 -5.921875 C 0.921875 -5.84375 0.875 -5.75 0.84375 -5.65625 C 0.796875 -5.5 0.71875 -5.34375 0.65625 -5.1875 C 0.625 -5.09375 0.578125 -5 0.5625 -4.90625 C 0.5625 -4.828125 0.53125 -4.765625 0.484375 -4.6875 C 0.421875 -4.546875 0.328125 -3 0.296875 -2.8125 C 0.28125 -2.734375 0.265625 -2.671875 0.265625 -2.59375 C 0.25 -2.46875 0.25 -2.34375 0.234375 -2.21875 C 0.203125 -2.0625 0.21875 -1.890625 0.21875 -1.734375 C 0.203125 -1.578125 0.203125 -1.421875 0.1875 -1.265625 C 0.1875 -1.234375 0.1875 -1.171875 0.1875 -1.125 C -0.34375 -0.90625 -0.390625 -0.03125 0.21875 0.140625 C 0.25 0.40625 0.1875 0.25 0.21875 0.5 C 0.265625 0.90625 0.328125 1.3125 0.40625 1.703125 C 0.4375 1.8125 0.453125 1.90625 0.46875 2 C 0.5 2.078125 0.53125 2.171875 0.5625 2.25 C 0.65625 2.4375 0.8125 2.59375 1 2.6875 C 1.0625 2.71875 1.125 2.765625 1.1875 2.796875 C 1.25 2.796875 1.328125 2.8125 1.40625 2.8125 C 1.453125 2.796875 1.515625 2.765625 1.5625 2.734375 C 1.625 2.71875 1.6875 2.6875 1.71875 2.65625 C 1.765625 2.578125 1.828125 2.5625 1.859375 2.5 C 1.875 2.4375 1.921875 2.375 1.953125 2.328125 C 2.3125 1.859375 2.4375 0.890625 2.4375 0.28125 C 2.4375 0.25 2.375 0.015625 2.359375 -0.109375 C 3.25 -0.484375 3.515625 -1.09375 4.046875 -1.703125 C 4.0625 -1.703125 4.078125 -1.71875 4.09375 -1.734375 C 4.109375 -1.75 4.109375 -1.78125 4.125 -1.78125 C 4.234375 -1.890625 4.234375 -1.96875 4.265625 -2.03125 C 4.40625 -2.21875 4.21875 -2.265625 4.140625 -2.1875 C 4.078125 -2.125 4 -1.984375 3.953125 -1.921875 C 3.9375 -1.921875 3.921875 -1.90625 3.90625 -1.890625 C 3.890625 -1.875 3.890625 -1.859375 3.875 -1.859375 C 3.859375 -1.84375 3.859375 -1.8125 3.84375 -1.78125 C 3.703125 -1.640625 3.578125 -1.484375 3.4375 -1.328125 C 3.421875 -1.296875 3.40625 -1.296875 3.390625 -1.28125 C 3.375 -1.265625 3.34375 -1.25 3.3125 -1.203125 C 3.25 -1.15625 3.234375 -1.140625 3.21875 -1.125 C 3.0625 -0.96875 2.65625 -0.546875 2.203125 -0.4375 C 1.96875 -0.828125 1.3125 -1.15625 1.0625 -1.171875 C 1.0625 -1.421875 1.078125 -1.59375 1.125 -1.640625 C 1.765625 -2.546875 3.046875 -4.71875 3.1875 -5.46875 C 3.21875 -5.546875 3.21875 -5.625 3.234375 -5.703125 C 3.265625 -5.765625 3.25 -5.8125 3.25 -5.859375 C 3.25 -5.921875 3.265625 -5.953125 3.28125 -6 C 3.296875 -6.0625 3.296875 -6.125 3.3125 -6.171875 C 3.328125 -6.234375 3.3125 -6.296875 3.3125 -6.375 C 3.328125 -6.484375 3.296875 -6.578125 3.265625 -6.671875 C 3.234375 -6.734375 3.234375 -6.8125 3.21875 -6.890625 C 3.203125 -6.9375 3.15625 -6.96875 3.125 -7.015625 C 3.09375 -7.09375 3.015625 -7.15625 2.9375 -7.203125 C 2.875 -7.234375 2.796875 -7.234375 2.734375 -7.265625 C 2.671875 -7.296875 2.578125 -7.296875 2.5 -7.328125 C 2.40625 -7.359375 2.3125 -7.296875 2.21875 -7.296875 Z M 1.078125 -0.890625 C 1.421875 -0.765625 1.609375 -0.625 1.734375 -0.296875 C 1.515625 -0.21875 1.3125 -0.203125 1.125 -0.1875 C 1.109375 -0.390625 1.09375 -0.640625 1.078125 -0.890625 Z M 1.125 0.15625 C 1.34375 0.109375 1.59375 0.09375 1.828125 0.015625 C 2.0625 0.984375 1.953125 2.5625 1.328125 2.390625 C 1.296875 2.375 1.296875 2.359375 1.296875 2.34375 C 1.265625 2.265625 1.25 2.203125 1.25 2.125 C 1.25 2 1.21875 1.859375 1.203125 1.734375 C 1.203125 1.6875 1.203125 1.640625 1.203125 1.609375 C 1.1875 1.515625 1.171875 1.421875 1.1875 1.34375 C 1.203125 1.203125 1.171875 1.078125 1.125 0.953125 C 1.125 0.9375 1.125 0.921875 1.125 0.90625 C 1.125 0.84375 1.109375 0.78125 1.109375 0.734375 C 1.109375 0.484375 1.125 0.46875 1.125 0.25 C 1.125 0.234375 1.125 0.1875 1.125 0.15625 Z M 0.203125 -0.21875 C -0.140625 -0.375 -0.046875 -0.6875 0.1875 -0.859375 C 0.1875 -0.65625 0.1875 -0.4375 0.203125 -0.21875 Z M 3.015625 -5.96875 C 3.015625 -5.921875 3.015625 -5.875 3 -5.84375 C 2.96875 -5.78125 2.953125 -5.71875 2.953125 -5.671875 C 2.9375 -5.171875 1.109375 -1.84375 1.1875 -2.296875 C 1.234375 -2.65625 1.21875 -3.953125 1.296875 -4.296875 C 1.328125 -4.390625 1.375 -4.46875 1.40625 -4.546875 C 1.421875 -4.609375 1.421875 -4.6875 1.4375 -4.765625 C 1.453125 -4.828125 1.46875 -4.90625 1.46875 -4.96875 C 1.46875 -5 1.484375 -5.046875 1.484375 -5.09375 C 1.5 -5.1875 1.546875 -5.265625 1.578125 -5.34375 C 1.59375 -5.40625 1.578125 -5.453125 1.609375 -5.484375 C 1.671875 -5.609375 1.703125 -5.734375 1.765625 -5.84375 C 1.796875 -5.921875 1.8125 -6.015625 1.859375 -6.078125 C 1.875 -6.140625 1.921875 -6.1875 1.9375 -6.234375 C 1.96875 -6.296875 2.03125 -6.328125 2.078125 -6.375 C 2.09375 -6.421875 2.109375 -6.453125 2.15625 -6.484375 C 2.203125 -6.5 2.21875 -6.546875 2.265625 -6.578125 C 2.359375 -6.65625 2.75 -7 2.890625 -6.921875 C 2.9375 -6.875 2.953125 -6.796875 2.953125 -6.734375 C 2.96875 -6.65625 3.015625 -6.578125 3.03125 -6.5 C 3.03125 -6.4375 3.015625 -6.390625 3.03125 -6.34375 C 3.03125 -6.28125 3.046875 -6.234375 3.03125 -6.171875 C 3.015625 -6.109375 3.015625 -6.046875 3.015625 -5.96875 Z M 3.015625 -5.96875 "/></g></g></g><g fill="#ff914d" fill-opacity="1"><g transform="translate(210.172373, 277.999434)"><g><path d="M 1.015625 -3.421875 C 1.0625 -3.671875 1.109375 -3.9375 1.203125 -4.171875 C 1.234375 -4.25 1.265625 -4.328125 1.3125 -4.40625 C 1.375 -4.515625 1.484375 -4.59375 1.5625 -4.6875 C 1.609375 -4.734375 1.65625 -4.75 1.6875 -4.765625 C 1.734375 -4.828125 1.78125 -4.859375 1.84375 -4.921875 C 1.875 -4.984375 1.921875 -5.03125 2 -5.046875 C 2.0625 -5.078125 2.09375 -5.125 2.140625 -5.140625 C 2.203125 -5.171875 2.21875 -5.21875 2.28125 -5.234375 C 2.421875 -5.28125 2.546875 -5.34375 2.6875 -5.359375 C 2.8125 -5.375 2.9375 -5.265625 2.9375 -5.140625 C 2.90625 -4.78125 2.875 -4.8125 2.796875 -4.515625 L 2.78125 -4.453125 C 2.765625 -4.421875 2.765625 -4.390625 2.75 -4.375 C 2.6875 -4.3125 2.65625 -4.234375 2.609375 -4.171875 C 2.5625 -4.109375 2.5 -4.046875 2.46875 -3.984375 C 2.375 -3.859375 2.265625 -3.765625 2.15625 -3.640625 C 2.140625 -3.59375 2.109375 -3.5625 2.078125 -3.53125 C 2.046875 -3.484375 2.03125 -3.453125 2 -3.421875 C 1.9375 -3.375 1.875 -3.375 1.84375 -3.328125 C 1.703125 -3.234375 1.578125 -3.140625 1.453125 -3.0625 C 1.34375 -3 1.21875 -2.9375 1.109375 -2.90625 C 1.046875 -2.890625 0.984375 -2.8125 0.9375 -2.8125 C 0.9375 -2.828125 0.9375 -2.859375 0.9375 -2.875 C 0.953125 -2.953125 0.953125 -3.046875 0.953125 -3.140625 C 0.96875 -3.171875 0.984375 -3.21875 0.984375 -3.25 C 0.984375 -3.3125 1 -3.359375 1.015625 -3.421875 Z M 0.859375 -2.109375 C 0.859375 -2.203125 0.875 -2.546875 0.921875 -2.578125 C 0.96875 -2.625 1.046875 -2.625 1.09375 -2.65625 C 1.1875 -2.703125 1.296875 -2.71875 1.40625 -2.78125 C 1.46875 -2.8125 1.546875 -2.84375 1.609375 -2.875 C 1.6875 -2.9375 1.78125 -2.984375 1.859375 -3.046875 C 1.921875 -3.09375 2 -3.140625 2.078125 -3.1875 C 2.140625 -3.234375 2.21875 -3.28125 2.28125 -3.328125 C 2.34375 -3.390625 2.40625 -3.453125 2.46875 -3.53125 C 2.5 -3.609375 2.578125 -3.671875 2.625 -3.734375 C 2.6875 -3.8125 2.75 -3.921875 2.84375 -4 C 2.875 -4.03125 2.90625 -4.09375 2.9375 -4.140625 C 2.953125 -4.203125 3.015625 -4.25 3.03125 -4.3125 C 3.078125 -4.578125 3.28125 -4.953125 3.171875 -5.234375 C 3.15625 -5.3125 3.09375 -5.375 3.046875 -5.4375 C 2.984375 -5.5 2.90625 -5.5625 2.8125 -5.59375 C 2.65625 -5.671875 2.140625 -5.59375 1.984375 -5.5625 C 1.78125 -5.5 1.625 -5.390625 1.453125 -5.296875 C 1.28125 -5.203125 1.125 -5.109375 0.984375 -4.984375 C 0.859375 -4.890625 0.78125 -4.765625 0.6875 -4.671875 C 0.625 -4.59375 0.59375 -4.515625 0.546875 -4.421875 C 0.484375 -4.34375 0.46875 -4.25 0.421875 -4.15625 C 0.3125 -3.953125 0.25 -3.71875 0.1875 -3.5 C 0.1875 -3.40625 0.15625 -3.328125 0.140625 -3.25 C 0.125 -3.203125 0.109375 -3.140625 0.109375 -3.09375 C 0.109375 -3.015625 0.078125 -2.953125 0.078125 -2.890625 C 0.078125 -2.796875 0.03125 -2.71875 0.03125 -2.640625 C 0.046875 -2.296875 -0.015625 -2.171875 0.046875 -1.78125 C 0.0625 -1.703125 0.09375 -1.640625 0.109375 -1.578125 C 0.109375 -1.53125 0.125 -1.484375 0.140625 -1.421875 C 0.1875 -1.265625 0.21875 -1.109375 0.3125 -0.96875 C 0.328125 -0.90625 0.359375 -0.828125 0.40625 -0.78125 C 0.5 -0.671875 0.53125 -0.609375 0.625 -0.515625 C 0.6875 -0.453125 0.765625 -0.375 0.828125 -0.3125 C 0.921875 -0.234375 1.71875 0.03125 1.828125 0.015625 C 2.375 0 2.625 -0.109375 2.890625 -0.28125 C 3.234375 -0.46875 3.390625 -0.59375 3.59375 -0.90625 C 3.625 -0.921875 3.65625 -0.984375 3.671875 -1.03125 C 3.6875 -1.0625 3.71875 -1.109375 3.734375 -1.140625 L 3.734375 -1.15625 C 3.765625 -1.21875 3.8125 -1.28125 3.828125 -1.359375 C 3.84375 -1.359375 3.84375 -1.359375 3.84375 -1.359375 C 3.84375 -1.375 3.84375 -1.375 3.84375 -1.375 C 3.953125 -1.5625 4.03125 -1.75 4.078125 -1.859375 C 4.09375 -1.90625 4.125 -2.03125 4.171875 -2.15625 C 4.1875 -2.203125 4.203125 -2.234375 4.234375 -2.28125 C 4.234375 -2.296875 4.25 -2.3125 4.25 -2.34375 C 4.25 -2.359375 4.265625 -2.359375 4.265625 -2.390625 C 4.28125 -2.40625 4.3125 -2.421875 4.3125 -2.4375 C 4.328125 -2.5 4.328125 -2.53125 4.328125 -2.5625 C 4.34375 -2.578125 4.359375 -2.578125 4.359375 -2.609375 C 4.421875 -2.796875 4.25 -2.8125 4.203125 -2.703125 C 4.171875 -2.609375 4.109375 -2.484375 4.0625 -2.40625 C 4.0625 -2.390625 4.046875 -2.375 4.03125 -2.359375 C 4.03125 -2.34375 4 -2.328125 3.984375 -2.296875 C 3.96875 -2.28125 3.96875 -2.234375 3.953125 -2.203125 C 3.890625 -2.015625 3.78125 -1.859375 3.703125 -1.703125 C 3.6875 -1.6875 3.671875 -1.671875 3.671875 -1.640625 C 3.671875 -1.640625 3.640625 -1.625 3.625 -1.609375 C 3.609375 -1.578125 3.609375 -1.5625 3.609375 -1.546875 C 3.59375 -1.53125 3.609375 -1.5 3.59375 -1.484375 C 3.59375 -1.46875 3.5625 -1.46875 3.546875 -1.4375 C 3.53125 -1.40625 3.53125 -1.375 3.5 -1.34375 C 3.5 -1.328125 3.5 -1.296875 3.484375 -1.28125 C 3.453125 -1.265625 3.453125 -1.234375 3.421875 -1.203125 C 3.34375 -1.109375 3.09375 -0.734375 2.875 -0.625 C 2.828125 -0.609375 2.796875 -0.5625 2.734375 -0.546875 C 2.59375 -0.5 2.453125 -0.4375 2.296875 -0.421875 C 2.21875 -0.40625 2.015625 -0.40625 1.921875 -0.421875 C 1.890625 -0.421875 1.859375 -0.4375 1.8125 -0.4375 C 1.359375 -0.546875 1.09375 -0.859375 0.953125 -1.203125 C 0.921875 -1.234375 0.9375 -1.28125 0.921875 -1.34375 C 0.875 -1.484375 0.859375 -1.953125 0.859375 -2.109375 Z M 0.859375 -2.109375 "/></g></g></g></svg>